<svg version="1.1" id="_50_kv_catch-sp.svg" xmlns="http://www.w3.org/2000/svg" x="0" y="0" viewBox="0 0 357.8 166.7" xml:space="preserve"><style>.st0,.st2{fill-rule:evenodd;clip-rule:evenodd;fill:#0b0b0b}.st2{fill:#fff}.st3{fill:#f4342a}</style><path id="&#x304F;&#x307E;WEB&#x306F;_" class="st0" d="M76.7 49.6c-7-7-20-16.3-24.8-20.5-1-.8-1.4-1.5-1.4-2.2 0-1.2 1-2.2 10.1-8.9 4.9-3.6 10.4-7.7 14.9-11.3L69.1 0C65 4.2 60.6 8.2 55.9 11.8c-4.5 3.7-8.9 6.8-11.3 9.1-2 1.9-2.9 3.9-2.9 5.9 0 2.2 1.1 4.4 3.2 6.3 5.2 4.7 18.2 14.9 24.7 22.7l7.1-6.2zm51.1-3.6c-4-4.1-8.5-7.5-13.5-10.2 0-2.5-.1-5.5-.1-8.2h12.1v-7.1h-12.1l-.1-5.9h13.7V7.5h-13.6v-7h-7.8c0 1.4.1 4 .1 7l-17.4.1v7.1h17.6l.1 5.9H90.5v7.1l16.4-.1.1 6.1c-1.6-.3-3.2-.5-4.8-.5-6.8 0-13.5 3.6-13.5 10.7 0 5 3.5 11.1 13.1 11.1 6.8 0 11-4.1 12.2-10.8 3.4 2.3 6.5 5.6 9.6 9.6l4.2-7.8zm-20.9-4.9c-.4 3.5-1.9 6.7-5.6 6.7-2.5 0-5.3-1.2-5.3-4 0-2.7 3.5-3.6 5.6-3.6 1.8 0 3.6.3 5.3.9zm67.5 12.7l11.3-51.1h-8.2L172 31.4c-.8 4.6-1.4 10.5-1.9 14.7-.5-4.5-1.2-11.1-1.9-14.8l-5.5-28.6h-7l-5.5 28.7c-1 5.3-1.4 11.3-1.9 14.7-.4-3.7-.8-8.7-1.9-14.7L141 2.8h-8.2l11.5 51.1h8l5.5-28.3c.7-3.5 1.2-9.7 1.4-12.6.3 3 .7 9 1.3 12.5l5.1 28.4 8.8-.1zm40.4 0v-7.4h-16V30.2h13.6v-7.4h-13.6V10.2h16V2.8h-24.1v50.9l24.1.1zm18.6 0c8.9 0 14.9-5.5 14.9-15.5 0-6.7-2.9-11-6.9-12.3 3.5-2.2 4.9-7.4 4.9-10.3 0-10.1-6.3-13-13.7-13h-11.3v51.1h12.1zM229 23.3V9.8h3.4c4.3 0 6.4 2 6.4 6.4 0 4.3-2.2 7-6.5 7l-3.3.1zm0 23.4V30.1h3.9c4.1 0 7.4 2.4 7.4 7.9 0 5.6-2.6 8.8-7.8 8.8l-3.5-.1zm67.9-2.1c-2.6-3.1-5.5-5.8-8.7-8.2 0-4.3-.1-10.7-.1-16.9l7.3-.1V12h-7.3V2l-7.6-.1c.1 2.5.2 6.1.2 10.1h-14.4v7.4H281l.1 14.2c-1.6-.5-3.3-.7-4.9-.7-5.8 0-10.9 4-10.9 10.2 0 6.2 5.5 10.6 11.4 10.6 5.8 0 9.5-2.9 10.9-8.4 2.1 2.2 4 4.5 5.6 7.1l3.7-7.8zm-34 8.4c-.9-6-1.3-12.1-1.3-18.1 0-10.8 1.1-22.8 2.8-31.6l-7.9-.8c-1.6 11.3-2.4 22.7-2.5 34.1 0 5.8.3 11.6 1 17.3l7.9-.9zm18.3-12c-.2 3-1.4 5.8-4.5 5.8-2.8 0-4.8-1.5-4.8-3.6 0-1.7 1.7-3.5 5-3.5 1.5.1 3 .6 4.3 1.3zm34.8 5.6c-2.6-4.5-6.1-8.5-10.2-11.8l-5 4.2c3.3 2.7 6.4 6.6 9.2 12.3l6-4.7z"/><path id="&#x30B3;&#x30FC;&#x30C0;&#x30FC;&#x96C6;&#x56E3;&#x3067;&#x3059;" class="st0" d="M37.8 163.4v-46.3H.5v8.1h28.8v27.5H0v8.1h29.3l-.1 2.5 8.6.1zm41.5-21v-8H45.8v8h33.5zm12.6 23.7c26.7-7.3 32.5-29.7 34.1-46.5l3.7-.8c-1-3.6-2.4-7-4.1-10.3l-4.1.6c1.5 3.1 2.7 6.4 3.7 9.7h-2.9c-1-3.4-2.3-6.7-3.7-9.9l-4.2.7c1.3 3 2.4 6.1 3.4 9.2-4.7 0-9.9.1-11 .1.8-2.1 1.6-4.3 2.3-6.3l-8.1-1.7c-2.2 8.7-8.2 20.4-17.6 26.8l6.2 5.8c5.7-4.6 10.7-11.3 14-17.6h14.1c-.7 5.3-2.4 10.4-5 15.1-3.2-2.6-6.7-5-10.2-7.2l-4.9 5.6c3.7 2.5 7.3 4.9 10.7 7.9-4.9 5.6-12.1 10.3-22.1 12.2l5.7 6.6zm71.4-23.7v-8h-33.5v8h33.5zm50.7 16.4c-5.5-1.3-10.7-3.4-15-6.5h13.3v-6.4H194v-2.8h16.6v-5.8h-15.7v-2.6h13v-4.5h-13v-2.5h13v-4.5h-13v-2.4h14.9V115l-13.5.1c.8-1.3 1.4-2.7 1.9-4.2l-7.5-1c-.5 1.8-1.3 3.5-2.2 5.2h-5.2c.5-1.1 1-2.3 1.4-3.5l-7-1.6c-1.9 5.7-5.7 11.6-10.5 15.4l2.7 7.9c1.1-1 2.1-2.2 3.1-3.4v13.3h14v2.8h-17.9v6.4l13.2-.1c-4.5 3.2-9.5 5.4-14.9 6.6l3.7 7c6-2.3 11.5-5.9 15.9-10.6v11.4h7.1v-11.6c4.5 4.8 10.3 8.3 16.2 10.6l3.7-6.9zm-25.9-21.4H180v-2.6h8.1v2.6zm0-7.1H180v-2.5h8.1v2.5zm0-7H180v-1.7l.4-.7h7.7v2.4zm71.7 43.4v-55.3h-42.2v55.3h7.2v-2.6h27.8v2.6h7.2zm-7.2-9.8h-27.8v-38.1h27.8v38.1zm-16.1-2c10.2-.4 10.9-2 10.9-11.3v-10.4h3.9V126h-3.9v-5.4h-6.7v5.4h-14.4v7.3h14.4v10.3c0 3.4-.1 3.6-4.3 3.6h-2.5l2.6 7.7zm1-11.5c-1.4-3.2-2.9-6.3-4.7-9.2l-5.5 3c1.7 3.1 3.1 6.3 4.4 9.5l5.8-3.3zm67.1 12.6c-1.8.2-3.7.3-5.5.3-10.4-.2-15.1-5.3-15.1-12.2 0-8 6-15.7 13.1-19.1 2.8-1.3 7-1.3 8.3-1.3l2.6-.1-.6-7.7c-11.5.8-31.3 1-41 1.2l.2 8.1c6.1-.3 15.1-1 20.3-1.3-6.2 5.2-10.5 13.2-10.5 20.9 0 12.8 10.1 19.9 24.3 19.9.8 0 1.7-.1 2.5-.1l1.4-8.6zm.5-17.6c-1-2.9-4.1-8.9-5.2-10.7l-4.1 1.4c1.3 1.9 4.2 8 5 10.9l4.3-1.6zm6.8-2.5c-1.5-3.5-3.2-7-5.3-10.2l-3.9 1.4c2 3.3 3.7 6.9 5.2 10.5l4-1.7zm13.5 30.4c14.3-2.9 20.1-11.9 20.1-21.7.1-3.2-.6-6.3-2-9.2.1-2.8.1-6.3.1-9.8l14.2-.1v-7.2h-14.3c0-2.5-.1-4.9-.1-7.1h-7.7c.1 2.2.2 4.6.2 7.1l-21.7.1v7.2l21.9-.1.1 4.2c-.9-.2-1.8-.3-2.6-.3-8 0-12.1 5.2-12.1 11.5 0 5.6 3.8 10.6 10.6 10.6 1.9.1 3.9-.5 5.5-1.6-1.6 3.7-6.3 7.5-17.3 9.1l5.1 7.3zm11.3-27.9c0 3-.8 6.7-4.6 6.7-2.8 0-3.9-2.3-3.9-4.4 0-2.7 1.7-5 4.1-5 1.8-.1 3.4.8 4.4 2.3v.4z"/><path id="&#x9577;&#x65B9;&#x5F62;_2" d="M69.2 70.4h220v25h-220v-25z" fill-rule="evenodd" clip-rule="evenodd" fill="#f4342a"/><path id="&#x30AF;&#x30EA;&#x30A8;&#x30A4;&#x30C6;&#x30A3;&#x30D6;&#x3092;&#x652F;&#x3048;&#x308B;30&#x4EBA;&#x306E;" class="st2" d="M79.2 89.2c7.4-2 8.6-8.1 9.1-12.5h-5.1c.2-.5.4-1.1.5-1.7l-2.2-.5c-.5 2.3-2 5.5-4.5 7.1l1.8 1.6c1.5-1.3 2.8-2.8 3.6-4.7h3.4c-.6 3.2-2.4 7.4-8.2 8.5l1.6 2.2zm14.9.1c6.3-1.4 6.6-5.5 6.6-9.3v-4.9h-2.2v6.2c0 2.5-.9 5.4-5.7 5.9l1.3 2.1zm.4-5.8v-8.4h-2.2v8.4h2.2zm21.1 4.4v-2.1h-4.5v-7.4h3.9v-2h-10.1v2h3.9v7.4h-4.4v2.1h11.2zm10 1.2v-8.8c1.3-1.4 2.5-2.8 3.4-4.5l-2.1-1.2c-2.1 3.7-5.4 6.6-9.4 8.1l1.6 1.9c1.5-.7 3-1.6 4.3-2.6v7l2.2.1zm17-7.5v-2.1h-11.3v2.1h4.9c-.1 2.6-.8 4.7-4.4 5.8l1.8 1.8c3.6-1.4 4.5-4.1 4.7-7.5l4.3-.1zm-1.3-4v-2.1h-8.6v2.1h8.6zm10.9 11.5v-7c1.1-1.1 2-2.3 2.8-3.6l-1.8-1c-1.7 3-4.4 5.4-7.7 6.5l1.4 1.7c1.2-.6 2.3-1.3 3.4-2v5.5l1.9-.1zm8.3.1c5.4-1.7 7.9-5.7 8.3-11.8v-1.1h-.6c-.3-.8-.7-1.8-.9-2.3l-1.1.2c.3.7.6 1.4.8 2.1h-8.4v2.2s5.6-.1 7.8-.1c-.3 3.8-1.8 7.5-7.4 9l1.5 1.8zm9.8-12.5c-.3-1-.6-1.9-1.1-2.8l-1.1.2c.4.9.8 1.9 1.1 2.9l1.1-.3zm11.8 10.1c-1.1.3-2.1.4-3.2.4h-.2c-.7 0-2.6-.1-2.6-1.1 0-.9 1.1-1.6 1.9-2.2 0 .7-.1 1.5-.1 2.1l1.9-.1v-2.7c1.2-.5 2.4-.9 3.6-1.2l-.7-2c-.7.3-1.9.7-3.1 1.3-.3-1.3-1-1.8-2-1.8-.6 0-1.2.3-1.6.6.4-.6.7-1.1 1-1.8h4.5v-1.8h-3.8c.2-.4.4-.9.5-1.3l-2.1-.4c-.1.5-.3 1-.5 1.6h-3.4v1.8h2.8c-.8 1.8-1.9 3.5-3.1 5l1.6 1.2c1.8-2.7 2.8-3.5 3.7-3.5.5 0 .7.4.8 1-1.5.9-3.8 2.3-3.8 4.2 0 2.5 2.7 3 4.5 3 1.1 0 2.3-.1 3.4-.3v-2zm11.1-4.9c-.4 1.1-1.1 2.1-2 2.8-.9-.8-1.6-1.7-2.1-2.8h4.1zm3.8 5.4c-1.4-.2-2.8-.6-4.1-1.3 1.2-1.1 2.1-2.6 2.5-4.2v-1.9H192V78h4.7v-2H192v-1.6h-2V76h-4.6v2h4.6v1.8h-4.1v2.1h1.1c.6 1.5 1.5 2.8 2.6 4-1.4.7-3 1.2-4.6 1.4l.8 2.1c1.9-.3 3.8-1 5.4-2 1.5 1 3.2 1.8 5 2.1l.8-2.2zm13.2-.8c-.8.2-1.5.3-2.3.3-1.2 0-1.3-.8-1.4-1.9-.1-.8-.6-1.4-1.3-1.4h-.3c1.4-1.4 2.3-2.3 3.5-3.4l-.1-1.5-8.5.1.1 2 3.9-.1 1.7-.1c-.5.5-1.1 1.1-1.7 1.8-1.7 1.7-3.5 3.8-5 5.3l1.6 1.6c1.3-1.7 2.3-3 3.1-3.8.2-.2.4-.4.7-.4.5 0 .7 1 .7 1.6.3 1.9 1.2 2.4 3 2.4.8 0 1.5-.1 2.3-.2v-2.3zm-2.3-11.1c-2.1 0-4.2-.2-6.3-.5l-.3 2c1.6.2 4.7.4 6.4.5l.2-2zm5.5 8.9c1.9-1.6 3.8-2.2 5.1-2.2 1.5 0 2.8.6 2.8 2.4 0 1.4-1 2.5-2.3 2.8-.2-1.8-1.2-3.2-3-3.2-1.2 0-2.4.7-2.4 2 0 2.2 2.6 3 4.3 3 3.2 0 5.5-2 5.5-4.8s-2.2-3.9-4-3.9c-.8 0-1.7.2-2.4.6h-.1l.1-.1c.4-.2 1.1-.7 1.5-1 0 0 2.2-1.8 3.1-2.6v-1.7l-7.5.1v2c.3 0 2 0 3.2-.1l1.7-.1c-.2.2-1.1.9-1.7 1.4-1.6 1.4-3.3 2.6-5.1 3.8l1.2 1.6zm3.8 3c-1.1-.1-2-.6-2-1.2 0-.3.3-.6.7-.6 1 0 1.3 1.4 1.3 1.8zm50.1.1c-3.4-2.1-4.6-5.3-5.1-8.9v-4.2h-2.1v3.8c0 3-1.1 7-5 9.3l1.4 2c2.4-1.6 4.1-4.1 4.8-6.9.7 2.8 2.4 5.2 4.6 6.9l1.4-2zm7.8 1.8c4.8-1.1 5.6-4.9 5.6-7.3 0-3.5-1.8-6.5-5.5-6.5-3.9 0-6.3 4.1-6.3 7.7 0 3.5 1.6 5 2.9 5 .8 0 1.6-.5 1.9-1.2.8-1.4 1.7-4.5 2.2-9.6 1.9.4 2.8 2.2 2.8 4.6 0 1.2-.2 4.7-4.7 5.4l1.1 1.9zM274 77.3c-.2 2.3-1.1 8.5-2.3 8.5-.8 0-1-2.1-1-2.6 0-2.9 1.6-5.3 3.3-5.9z"/><path class="st2" d="M207.9 75.4c-2.1 0-4.2-.2-6.3-.5l-.3 2c1.6.2 4.7.4 6.4.5l.2-2zM230.7 91c-1.7 0-3.4-.5-4.9-1.5l-.5-.3v-6.6l1.7 1.5c1.1 1 2.5 1.5 3.9 1.6 2.5 0 2.7-1.9 2.7-2.7 0-1.1-.6-2.3-2.2-2.3-.5 0-1.1 0-1.6.1l-1.1.2v-5.6l1.1.1c.3 0 .7.1 1 .1h.4c1.1 0 1.6-1.2 1.6-1.9 0-1-.6-1.5-2-1.5-1.2 0-2.4.5-3.4 1.3l-1.6 1.4v-6.4l.5-.3c1.4-.8 3.1-1.2 4.7-1.2 5.1 0 6.9 3.3 6.9 6.5 0 1.7-.5 3.3-1.4 4.4 1.4 1.2 2.2 3.1 2.2 5.4 0 3.9-2.5 7.8-8.2 7.8l.2-.1z"/><path class="st3" d="M231.2 68c.1 0 .1 0 0 0 4.8 0 5.9 3.2 5.9 5.5 0 1.9-.7 3.8-2 4.5 1.9.8 2.9 3 2.9 5.2 0 3-1.7 6.8-7.2 6.8h-.1c-1.5 0-3.1-.5-4.4-1.3v-3.9c1.3 1.1 2.9 1.8 4.6 1.9 3.7 0 3.8-3.4 3.8-3.7 0-1.7-1.1-3.4-3.2-3.4-.6 0-1.1 0-1.6.1v-3.3c.4 0 .8.1 1.1.1h.4c1.6 0 2.6-1.6 2.6-3 0-.5-.1-2.5-3-2.5-1.5 0-2.9.6-4 1.5V69c1.3-.6 2.8-1 4.2-1m0-2c-1.8 0-3.6.4-5.2 1.3l-1.1.6V77l2.8-2.4v7.5l2.3-.3c.5-.1.9-.1 1.4-.1 1 0 1.2.8 1.2 1.4 0 1.7-1.2 1.7-1.7 1.7-1.2 0-2.4-.5-3.3-1.3l-3.3-3V92l1.9-.9c1.4.7 2.9 1.1 4.4 1.1h.2c6.3 0 9.1-4.4 9.1-8.8 0-2.2-.7-4.1-2-5.5.7-1.2 1.1-2.7 1.1-4.2.2-3.7-1.9-7.7-7.8-7.7zm-3 8.3l.1-.1c.8-.7 1.7-1 2.8-1.1.9 0 .9.2.9.5s-.2.9-.6 1h-.4c-.3 0-.6 0-.9-.1l-1.9-.2z"/><path class="st2" d="M246.4 91.1c-3.4 0-7.4-2.1-7.4-12 0-10 4-12 7.4-12 3.4 0 7.5 2.1 7.5 12 0 7.7-2.7 12-7.5 12zm0-18.7c-1.3 0-2.1 2.4-2.1 6.7 0 2.5.3 6.7 2.1 6.7 1.4 0 2.1-2.4 2.1-6.7 0-4.3-.7-6.7-2.1-6.7z"/><path class="st3" d="M246.4 68c5.2 0 6.5 5.7 6.5 11s-1.2 11-6.5 11c-5.2 0-6.4-5.7-6.4-11 0-5.2 1.2-11 6.4-11m0 18.7c2.5 0 3.1-3.8 3.1-7.7 0-3.8-.6-7.7-3.1-7.7s-3.1 3.9-3.1 7.7c0 3.9.6 7.7 3.1 7.7m0-20.7c-3.1 0-8.4 1.7-8.4 13 0 5.9 1.4 9.2 3.3 11l-4.9 2h10.1c3.2 0 8.5-1.7 8.5-13-.1-11.3-5.4-13-8.6-13zm0 7.4c.2 0 1.2 1 1.2 5.7 0 2-.2 3.6-.5 4.7-.2.6-.4 1-.6 1 0 0-1-.7-1-5.7-.2-5 .8-5.7.9-5.7zm0 0z"/></svg>