<svg version="1.1" id="kv_catch-pc.svg" xmlns="http://www.w3.org/2000/svg" x="0" y="0" viewBox="0 0 715.6 333.4" xml:space="preserve"><style>.st0{fill-rule:evenodd;clip-rule:evenodd;fill:#0b0b0b}.st1{fill:#f4342a}.st2{enable-background:new}.st3{fill:#fff}</style><path id="&#x304F;&#x307E;WEB&#x306F;_" class="st0" d="M153.5 99.1c-13.9-13.9-40-32.5-49.7-40.9-1.9-1.6-2.8-3-2.8-4.3 0-2.4 2-4.4 20.2-17.9 9.7-7.2 20.8-15.4 29.9-22.7L138.2 0c-8.3 8.4-17.1 16.3-26.4 23.6-9 7.3-17.8 13.7-22.6 18.1-4 3.7-5.9 7.8-5.9 11.9 0 4.3 2.3 8.8 6.5 12.6 10.3 9.5 36.5 29.9 49.4 45.5l14.3-12.6zM255.6 92c-7.9-8.1-17-15-27-20.4 0-5-.1-10.9-.1-16.3h24.1V41h-24.1l-.1-11.8h27.4V15h-27.2V1H213c0 2.9.1 7.9.2 14l-34.9.1v14.3h35.3l.1 11.8h-32.5v14.3l32.8-.1.1 12.1c-3.2-.7-6.4-1-9.6-1-13.6 0-27 7.2-27 21.4 0 10.1 7.1 22.2 26.2 22.2 13.6 0 22.1-8.2 24.4-21.6 6.7 4.7 13 11.3 19.2 19.2l8.3-15.7zm-41.8-9.8c-.8 7-3.8 13.3-11.3 13.3-5 0-10.6-2.4-10.6-7.9 0-5.4 7-7.2 11.2-7.2 3.7 0 7.3.6 10.7 1.8zm135 25.4L371.4 5.5H355l-11 57.4c-1.7 9.1-2.8 21-3.8 29.4-1-9-2.4-22.2-3.7-29.5l-11-57.2h-13.9l-11 57.4c-2 10.7-2.9 22.6-3.7 29.4-.8-7.3-1.6-17.4-3.8-29.4L282 5.5h-16.3l22.9 102.1h16l11-56.5c1.4-7.1 2.4-19.3 2.9-25.2.6 6 1.3 18 2.6 25l10.2 56.8 17.5-.1zm80.8-.1V92.8h-32V60.5h27.1V45.6h-27.1V20.4h32V5.6h-48.1v101.9h48.1zm37.2.1c17.8 0 29.9-10.9 29.9-31 0-13.3-5.9-22.1-13.8-24.6 7-4.3 9.8-14.8 9.8-20.6 0-20.2-12.6-25.9-27.5-25.9h-22.6v102.1h24.2zm-8.8-61V19.7h6.7c8.5 0 12.7 4.1 12.7 12.8 0 8.6-4.4 14-13.1 14l-6.3.1zm0 46.9V60.1h7.8c8.3 0 14.8 4.8 14.8 15.8 0 11.2-5.2 17.5-15.6 17.5l-7 .1zm135.9-4.2c-5.1-6.1-11-11.6-17.4-16.3 0-8.6-.1-21.4-.1-33.7l14.6-.1V24.4h-14.6v-20l-15.1-.1c.2 4.9.4 12.1.5 20.2H533v14.9h29.2l.2 28.3c-3.2-.9-6.5-1.4-9.8-1.3-11.6 0-21.7 7.9-21.7 20.4 0 12.4 10.9 21.1 22.8 21.1 11.5 0 19.1-5.8 21.8-16.8 4.2 4.4 7.9 9.1 11.2 14.2l7.2-16zM525.8 106c-1.8-12-2.6-24.1-2.5-36.2 0-21.6 2.2-45.6 5.5-63.1L513.1 5c-3.1 22.6-4.8 45.4-4.9 68.2-.1 11.6.6 23.1 2 34.6l15.6-1.8zm36.6-23.9c-.4 6-2.9 11.6-9 11.6-5.5 0-9.6-3-9.6-7.2 0-3.5 3.5-7 10-7 3 .2 6 1.1 8.6 2.6zM632 93.3c-5.3-9-12.2-17-20.4-23.5l-10.1 8.4c6.6 5.4 12.8 13.1 18.5 24.6l12-9.5z"/><path id="&#x30B3;&#x30FC;&#x30C0;&#x30FC;&#x96C6;&#x56E3;&#x3067;&#x3059;" class="st0" d="M75.6 326.8v-92.5H1v16.2h57.6v55.1H0v16.2h58.6l-.1 5h17.1zm82.9-42v-16.1h-67v16.1h67zm25.3 47.4c53.4-14.6 64.9-59.4 68.3-93l7.3-1.7c-2.1-7.1-4.8-14-8.2-20.6l-8.3 1.2c3 6.3 5.4 12.8 7.3 19.4h-5.9c-2-6.8-4.5-13.4-7.4-19.8l-8.4 1.3c2.6 6 4.9 12.2 6.7 18.5-9.5 0-19.8.1-22.1.1 1.7-4.2 3.2-8.5 4.6-12.6l-16.2-3.4c-4.3 17.4-16.4 40.8-35.2 53.5l12.4 11.6c11.4-9.1 21.4-22.6 28-35.3H235c-1.4 10.6-4.8 20.8-10 30.1-6.5-5.2-13.3-10-20.4-14.4l-9.7 11.2c7.3 4.9 14.6 9.8 21.4 15.8-9.8 11.3-24.1 20.6-44.3 24.5l11.8 13.6zm142.7-47.4v-16.1h-67v16.1h67zm101.4 32.8c-10.9-2.6-21.5-6.8-30-13h26.6v-12.7H388v-5.6h33.2v-11.5h-31.4v-5.2h25.9v-9h-25.9v-5h25.9v-9h-25.9v-4.8h29.9v-11.6l-27 .1c1.5-2.7 2.8-5.5 3.7-8.4l-15-1.9c-1.1 3.6-2.5 7-4.3 10.3h-10.3c1-2.3 2-4.6 2.9-7l-13.9-3.2c-3.8 11.4-11.4 23.3-21 30.7l5.4 15.7c2.2-2.1 4.3-4.3 6.1-6.7v26.5h27.6v5.6h-35.8v12.8l26.4-.1c-9 6.3-19.1 10.8-29.8 13.2l7.3 13.9c12-4.6 22.9-11.8 31.8-21.1v22.8H388v-23.2c9 9.6 20.5 16.6 32.4 21.2l7.5-13.8zm-51.7-42.9H360v-5.2h16.2v5.2zm0-14.1H360v-5h16.2v5zm0-14.1H360V243l.7-1.3h15.5v4.8zm143.4 86.9V222.9h-84.5v110.5h14.4v-5.2h55.7v5.2h14.4zm-14.4-19.7h-55.7v-76.2h55.7v76.2zm-32.3-3.9c20.4-.7 21.7-4 21.7-22.6v-20.8h7.8v-14.5h-7.8v-10.8h-13.4v10.8h-28.8v14.5h28.8V287c0 6.7-.1 7.2-8.6 7.2h-5l5.3 15.6zm2.2-23.1c-2.7-6.3-5.9-12.5-9.4-18.5l-11 6c3.3 6.2 6.2 12.5 8.8 19.1l11.6-6.6zM609.2 312c-3.7.4-7.4.6-11 .6-20.9-.4-30.1-10.7-30.1-24.5 0-16 12-31.4 26.2-38.2 5.5-2.6 13.9-2.6 16.6-2.6l5.2-.1-1.2-15.4c-23 1.6-62.5 2-82.1 2.4l.4 16.2c12.1-.6 30.1-2 40.6-2.5-12.4 10.4-21 26.4-21 41.8 0 25.6 20.3 39.8 48.6 39.8 1.7 0 3.5-.1 5-.2l2.8-17.3zm1-35.1c-1.9-5.8-8.3-17.9-10.4-21.4l-8.2 2.9c2.6 3.7 8.4 16.1 10.1 21.7l8.5-3.2zm13.6-5.1c-2.9-7.1-6.4-13.9-10.6-20.4l-7.8 2.9c4 6.7 7.5 13.7 10.3 21l8.1-3.5zm27.1 60.9c28.6-5.8 40.2-23.8 40.2-43.3.1-6.3-1.2-12.6-4-18.4.1-5.6.1-12.6.1-19.6l28.3-.1v-14.4H687c0-4.9-.1-9.7-.1-14.2h-15.5c.1 4.4.4 9.2.4 14.3l-43.5.1v14.4l43.8-.1.1 8.4c-1.7-.4-3.5-.7-5.3-.6-16 0-24.2 10.4-24.2 22.9 0 11.3 7.6 21.2 21.2 21.2 3.9.1 7.7-1 10.9-3.2-3.1 7.4-12.6 15-34.6 18.1l10.7 14.5zm22.5-55.9c0 6-1.6 13.4-9.2 13.4-5.5 0-7.8-4.6-7.8-8.9 0-5.4 3.5-10 8.3-10 3.5-.1 6.9 1.7 8.8 4.7v.8h-.1z"/><g id="asdf"><path id="&#x9577;&#x65B9;&#x5F62;_2" class="st1" d="M158.4 143.8h390v44h-390z"/></g><g class="st2"><path class="st3" d="M170.5 174.2c10.3-2 13.3-9.4 14.4-15h-6.1c-1.5 3.2-3.8 6.2-6.4 8.2l-3.1-2.9c4.5-2.9 7.1-8.5 8-12.5l3.9.8c-.3 1-.6 2-1 2.9 2.7 0 7.7-.1 9-.1-1 7.8-3 18.5-16 22.1l-2.7-3.5zm25.6-6.5v-14.8h3.8v14.8h-3.8zm.7 6.6c8.5-1 10-6.1 10.1-10.5v-11h3.8s.1 5.3.1 8.7c0 6.7-.4 14-11.6 16.4l-2.4-3.6zm20.4 1.1v-3.7h7.8v-13h-6.8v-3.6h17.7v3.6H229v13h8v3.7h-19.8zm33.3 2.2l.1-12.4c-2.5 1.9-5.1 3.4-7.6 4.6l-2.8-3.4c7.5-2.9 13.2-8 16.6-14.3l3.6 2.1c-1.9 3.1-4 5.7-6.1 7.8v15.5l-3.8.1zm26.5-13.3c-.3 6-2 10.8-8.3 13.3l-3.2-3.2c6.3-1.8 7.5-5.6 7.7-10.1h-8.6v-3.6h19.9v3.6H277zm-10.1-7v-3.7h15.2v3.7h-15.2zm30.9 20.4V168c-2 1.5-3.9 2.6-5.9 3.6l-2.4-3c6.1-2.3 10.8-6.4 13.5-11.5l3.2 1.8c-1.5 2.5-3.3 4.7-4.9 6.4v12.4h-3.5zm15.5-3.3c9.9-2.6 12.6-9.1 13.1-15.8-3.9.1-13.7.2-13.7.2V155h14.8c-.4-1.3-1-2.9-1.4-3.6l2-.3c.3.8 1.1 2.5 1.5 4h1v2c-.7 10.7-5 17.8-14.6 20.8l-2.7-3.5zm18.2-18.1c-.3-1.3-1.2-3.8-1.9-5.1l2-.3c.6 1.1 1.6 3.6 1.9 4.9l-2 .5zm22.3 20.8c-2 .4-4 .5-6 .5-3.2 0-7.9-.8-7.9-5.3 0-3.4 4-5.9 6.6-7.5-.2-1.1-.6-1.7-1.5-1.7-1.5 0-3.4 1.3-6.5 6.1l-2.8-2.1c2.3-2.6 4.1-5.8 5.5-8.8h-4.9v-3.2h6c.4-1.1.7-2.1.9-2.9l3.8.6c-.3.8-.6 1.5-.9 2.3h6.7v3.2h-8c-.6 1.2-1.1 2.2-1.8 3.2.8-.6 1.9-1.1 2.9-1.1 1.8 0 3 .9 3.5 3.1 2.2-1 4.3-1.7 5.5-2.2l1.3 3.5c-2 .5-4.4 1.3-6.4 2.1.1.7.1 1.5.1 2.2v2.6l-3.4.3c0-1 .1-2.4.1-3.6-1.4 1-3.4 2.2-3.4 3.9 0 1.8 3.3 2 4.5 2h.4c1.7 0 3.8-.2 5.7-.7v3.5zm25.3 1c-3.3-.6-6.3-1.8-8.8-3.6-3 1.9-6.4 3.1-9.5 3.6l-1.4-3.7c2.9-.4 5.7-1.2 8-2.4-1.8-1.9-3.4-4.2-4.5-7h-2v-3.6h7.2v-3.2H360v-3.6h8.1v-2.7h3.6v2.7h8.2v3.6h-8.2v3.2h6.2v3.3c-.9 3-2.5 5.4-4.5 7.4 2.2 1.2 4.6 2 7.2 2.4l-1.5 3.6zM366.7 165c1 2 2.2 3.6 3.7 5 2-1.7 3.1-3.6 3.5-5h-7.2zm37.2 11.7c-1.3.2-2.7.4-4 .4-3.1 0-4.8-.8-5.3-4.3-.1-1.2-.4-2.9-1.3-2.9-.3 0-.7.2-1.2.7-1.4 1.4-3.1 3.8-5.5 6.7l-2.7-2.9c2.5-2.7 5.8-6.3 8.8-9.3 1.1-1.1 2.2-2.2 3-3.1l-2.9.1-6.8.3-.1-3.4 15-.1.1 2.7c-2.1 2-3.9 3.7-6.2 6 .2 0 .3-.1.5-.1 1.3 0 2.1 1.1 2.4 2.5.3 2 .4 3.3 2.5 3.4.9 0 1.8 0 4.1-.4l-.4 3.7zm-4.2-19.7c-3.1-.1-8.5-.4-11.3-.8l.5-3.6c2.7.4 8.1.8 11.1.9l-.3 3.5zm8 9.1c2.8-1.8 8-5.7 9-6.7 1.1-.9 2.6-2.1 2.9-2.5l-3 .2c-2.1.2-5.1.2-5.7.3l-.1-3.5 13.2-.1.1 3c-1.6 1.4-5.5 4.5-5.5 4.5-.7.6-2 1.4-2.6 1.8l-.1.1h.2c1.5-.7 2.9-1 4.2-1 3.2 0 7.1 1.9 7.1 6.8 0 4.8-3.9 8.4-9.7 8.4-3 0-7.6-1.4-7.6-5.2 0-2.3 2.1-3.6 4.3-3.6 3.1 0 4.9 2.5 5.2 5.7 2.5-.6 4.1-2.8 4.1-5 0-3.1-2.2-4.2-4.8-4.2-2.3 0-5.7 1.1-9.1 3.9l-2.1-2.9zm6.6 5.1c-.6 0-1.3.3-1.3 1 0 1.1 1.5 2 3.4 2.2 0-.7-.5-3.2-2.1-3.2z"/></g><g class="st2"><path class="st3" d="M442 182.4c-3.8 0-7.4-1-10.2-3l-.7-.4v-12l2.5 2.1c3.4 2.9 6.5 3.5 8.5 3.5 5.8 0 6.3-4.7 6.3-6.2 0-2.7-1.6-5.5-5.1-5.5h-.1c-.6 0-2.6.1-3.1.2l-1.8.4v-10.4l1.7.2c.7.1 1.5.1 2.2.1h.9c2.7 0 3.9-2.7 3.9-4.6 0-2.5-1.6-3.7-4.7-3.7-1.7 0-4.4.5-7.4 2.9l-2.4 1.9v-11.6l.8-.4c3.6-2 7.3-2.4 9.7-2.4 10.1 0 13.7 6.7 13.7 12.9 0 3.6-1.2 7-3.1 9.2 3.1 2.3 4.9 6.3 4.9 11.1-.1 7.3-4.4 15.7-16.5 15.7z"/><path class="st1" d="M442.9 135.1c9.8 0 12.2 6.5 12.2 11.4 0 4-1.6 7.8-4.1 9.5 3.9 1.7 5.9 6.2 5.9 10.8 0 6.2-3.6 14.2-14.9 14.2-3.2 0-6.5-.8-9.4-2.7v-8c3.3 2.8 6.7 3.8 9.5 3.8 7.7 0 7.8-7 7.8-7.7 0-3.6-2.2-7-6.6-7h-.1c-.6 0-2.7.1-3.4.3v-6.8c.8.1 1.7.2 2.4.2.4 0 .7-.1.9-.1 3.4-.1 5.4-3.2 5.4-6.1 0-1.1-.3-5.2-6.2-5.2-2.4 0-5.4.8-8.4 3.2v-7.6c3-1.7 6.2-2.2 9-2.2m0-3c-2.6 0-6.6.4-10.4 2.5l-1.6.9v15.6l4.9-3.9c2.7-2.1 5-2.6 6.5-2.6 3.2 0 3.2 1.4 3.2 2.2 0 1.3-.8 3.1-2.5 3.1h-.9c-.5 0-1.3 0-2-.1l-3.4-.5v13.9l3.6-.8c.4-.1 2.2-.2 2.8-.2h.1c3.4 0 3.6 3.3 3.6 4 0 2.1-.8 4.7-4.8 4.7-1.8 0-4.5-.5-7.6-3.1l-4.9-4.2v16.1l1.3.9c3.1 2.1 6.9 3.2 11.1 3.2 12.4 0 17.9-8.6 17.9-17.2 0-4.6-1.6-8.7-4.4-11.3 1.6-2.4 2.5-5.6 2.5-9 .2-6.8-3.8-14.2-15-14.2z"/><path class="st3" d="M472.8 182.6c-6.8 0-14.9-4.2-14.9-24.4s8.1-24.5 14.9-24.5c6.8 0 15 4.2 15 24.4-.1 15.8-5.4 24.5-15 24.5zm0-39c-4.1 0-4.9 7.9-4.9 14.5s.9 14.5 4.9 14.5c4.3 0 5-9.1 5-14.5 0-5.5-.7-14.5-5-14.5z"/><path class="st1" d="M472.8 135.2c10.9 0 13.5 11.9 13.5 22.9 0 11-2.6 23-13.5 23s-13.4-12-13.4-22.9c0-11.1 2.5-23 13.4-23m0 38.9c5.3 0 6.5-8 6.5-16s-1.2-16-6.5-16-6.4 8.1-6.4 16c-.1 8 1.1 16 6.4 16m0-41.9c-6.1 0-10.8 3.2-13.5 9.1-1.9 4.2-2.9 9.9-2.9 16.9 0 7 1 12.6 2.9 16.8 2.7 6 7.4 9.1 13.5 9.1s16.5-3.4 16.5-26c0-7-1-12.6-2.9-16.8-2.8-6-7.5-9.1-13.6-9.1zm0 38.9c-1.7 0-3.4-3.4-3.4-13 0-6 .9-13 3.4-13 1.6 0 3.5 3.4 3.5 13 0 7.8-1.4 13-3.5 13z"/></g><g class="st2"><path class="st3" d="M509.4 178.1c-4.2-3.1-6.8-7.2-8.2-12.1-1.4 4.8-3.9 9-8.5 12.1l-2.5-3.5c6.9-4.1 8.9-11.1 8.9-16.4v-6.6h3.8v7.4c.7 6.2 2.9 11.9 8.9 15.6l-2.4 3.5zm14.4-3.7c7.9-1.3 8.3-7.4 8.3-9.6 0-4.2-1.6-7.4-4.9-8-.9 9-2.5 14.5-3.9 16.9-.9 1.6-2.2 2.2-3.4 2.2-2.2 0-5.1-2.7-5.1-8.8 0-6.3 4.3-13.6 11.1-13.6 6.5 0 9.7 5.3 9.7 11.5 0 4.2-1.5 10.9-9.9 12.8l-1.9-3.4zm-5.8-7.2c0 1 .4 4.6 1.8 4.6 2 0 3.7-11 4-15-3 1-5.8 5.2-5.8 10.4z"/></g></svg>