<svg xmlns="http://www.w3.org/2000/svg" width="133.37" height="43.87" viewBox="0 0 133.37 43.87"><path d="M16.8 18.96a13.019 13.019 0 01-4.59-3.73l5 .92.88-2.34-6.57-1.24.43-1.15 2.34.44.94-2.51a21.059 21.059 0 011.97 3.44l2.4-1.99a22.108 22.108 0 00-2.36-3.58L15.48 8.7l1.41-3.74 1.44 2.02a23.171 23.171 0 003.64-3.08l-1.76-1.79a17.677 17.677 0 01-3.31 2.83l.9-2.39-2.54-.45a9.307 9.307 0 00.82-.94l-2.5-.92a10.631 10.631 0 01-1.13 1.33l-1.76-.36L8.35 7.4l-.39-2.09a16.7 16.7 0 01-4.7 2.25l.49 2.71a21.629 21.629 0 004.4-2.35l-.98 2.59 2.21.42-.43 1.15-6.43-1.21-.88 2.34 4.9.95A20.346 20.346 0 010 15.83l.4 2.76a20.679 20.679 0 007.21-2.98l-1.67 4.43 2.57.49 1.69-4.47a12.617 12.617 0 004.29 5.15zM9.76 3.59a21.3 21.3 0 00-1.28-3.6L5.91 1.23a22.271 22.271 0 011.26 3.64zm3.06 5.64l-2.48-.47.56-1.48 2.48.46zm1.34-3.53l-2.49-.47.54-1.42 2.48.47zm19.42 9.17c-.66.88-4.7 5.94-8.57 5.21-1.56-.29-1.58-1.64-.98-3.23 1.19-3.15 3.33-8.59 5.02-12.57L26 3.59c-1.55 4.1-3.78 9.83-5.08 13.26-1.16 3.09-.32 5.47 2.7 6.04 4.07.77 8.23-1.6 11.61-5.47zm5.61 10.4c.63.18 1.29.38 1.92.5 2.79.52 5.25-1.1 7.91-8.14 2.05-5.41.25-5.8-1.66-6.16-.32-.06-.65-.1-1.05-.15.77-1.38 1.44-2.66 1.96-3.79l-2.69-.78a37.894 37.894 0 01-2.06 4.18l-3.72-.46-.8 2.74c1.01.08 2 .15 3.05.26a66.981 66.981 0 01-7.65 10l2.25 1.54a71.926 71.926 0 008.24-11.21c.61.1.94.14 1.57.26.86.16.75 1.01.03 2.91-.84 2.24-2.55 6.33-4.43 5.97a14.514 14.514 0 01-2.56-.82zm13.96-5.14a17.712 17.712 0 00-.08-9.59l-2.66.41c.94 2.8.75 6.17-.27 9.92zm2.75 8.29c5.86.73 10.58-.6 12.32-5.19 1.24-3.29-.05-5.63-3.51-6.29-1.82-.34-3.16-.35-8.08-.31l-.14 2.68c5.63-.24 5.95-.24 6.95-.05 1.71.32 2.82 1.47 2.12 3.33-.99 2.63-3.81 4.07-9.81 3.1zm15.48 3.35c2.58-3.41 5.94-8.68 8.56-13.09l4.52.83.96-2.53-4.1-.75c.47-.81.91-1.6 1.3-2.33l-2.82-.76c-.39.73-.81 1.62-1.37 2.54l-3.51-.66-.96 2.55 3.16.6a128.727 128.727 0 01-8.3 12.4zm13.58-.81a18.224 18.224 0 01-3.56-.27c-2.44-.47-2.74-1.33-2.5-1.98a2.105 2.105 0 01.92-.88l-2.26-.89a4.12 4.12 0 00-1.35 1.67c-1.21 3.2 3.07 4.56 5.1 4.95a13.8 13.8 0 002.73.27zm3.41-8.97a27.872 27.872 0 00-3.49-.88 28.3 28.3 0 00-4.04-.47l-.74 2.57a12.937 12.937 0 013.03.26 19.675 19.675 0 013.95 1.14zm14.48 12.05a12.052 12.052 0 00-2.4-3.32c.69-1.82 1.35-3.77 2-5.67l-2.65-.52c-.52 1.56-1.07 3.38-1.56 4.81a5.649 5.649 0 00-1.3-.42 4.924 4.924 0 00-5.71 2.77c-.69 1.84.18 3.89 2.71 4.36a4.672 4.672 0 005.25-2.54 15.189 15.189 0 011.42 3.04zM89.17 31.7a88.716 88.716 0 008.15-9.63l2.81.53.97-2.57-2.16-.41c.53-.73 1.05-1.5 1.53-2.2l-2.57-.86c-.48.76-1.11 1.76-1.69 2.57l-3.7-.7-.98 2.55 3.11.58a68.678 68.678 0 01-7.56 8.63zm18.24-9.47a11.526 11.526 0 00-3.53-1.16 16.067 16.067 0 00-2.18-.28l-.82 2.6a7.078 7.078 0 011.45.14 11.313 11.313 0 013.66 1.34zm-10.2 9.47c-.47 1.12-1.14 2.16-2.48 1.91a1.2 1.2 0 01-1.13-1.56 2.052 2.052 0 012.35-.88 3.378 3.378 0 011.26.53zm17.06 2.91c3.16-.91 6.24-3.41 7.96-7.97l-12.37-2.34-.91 2.43c1.06.2 7.31 1.38 9.63 1.73a7.726 7.726 0 01-4.57 3.57c.47-.94.88-1.96 1.28-3.01l-2.63-.54c-1.54 4.1-2.9 6.89-7.92 7.73l1.22 2.47a11.136 11.136 0 007.6-5.77zm13.71 4.53L130 34.4l3.38-8.66-3.11-.59-3.2 8.72-1.6 4.8zm-3.1 4.7a2.59 2.59 0 002.79-1.62 1.7 1.7 0 00-1.27-2.39 2.6 2.6 0 00-2.79 1.62 1.7 1.7 0 001.27 2.39z" fill="#0b0b0b" fill-rule="evenodd"/></svg>