<svg xmlns="http://www.w3.org/2000/svg" width="205.47" height="151.188" viewBox="0 0 205.47 151.188"><path d="M41.95 28.709c-2.34-4.881-7.62-11.939-9.41-14.979a1.444 1.444 0 01-.27-1.4c.29-.669 1.14-1.089 8.08-3.523 3.72-1.3 7.94-2.778 11.5-4.158L49.75.014a111.191 111.191 0 01-10.6 4.676c-3.53 1.388-6.86 2.527-8.81 3.416a6.132 6.132 0 00-3.18 2.883 4.432 4.432 0 00.33 3.976c1.84 3.385 6.93 10.953 8.78 16.232zm30.43 5.358a26.036 26.036 0 00-5.34-7.629c.62-1.4 1.31-3.049 1.98-4.552l7.02 1.741 1.77-3.976-7.02-1.741 1.41-3.283 7.97 1.975 1.76-3.976L74 10.66l1.74-3.909-4.54-1.126c-.36.8-.95 2.213-1.67 3.926L59.35 7.064l-1.76 3.975 10.27 2.547-1.42 3.283-9.47-2.347-1.76 3.975 9.55 2.332-1.46 3.383a12.63 12.63 0 00-2.68-.96c-3.95-.979-8.75.055-10.5 4-1.24 2.807-.68 6.692 4.88 8.07 3.94.979 7.43-.678 9.76-4.256a21.652 21.652 0 013.21 6.732zm-10.94-5.754c-1.11 1.877-2.76 3.431-4.93 2.894-1.47-.364-2.78-1.431-2.1-2.967.67-1.5 2.92-1.5 4.14-1.2a9.177 9.177 0 012.89 1.273zm35.99 16.785l19.18-26.8-4.78-1.187-10.27 15.182c-1.61 2.418-3.4 5.647-4.75 7.908.83-2.575 2.05-6.354 2.57-8.487l3.85-16.734-4.05-1-10.3 15.173c-1.91 2.827-3.63 6.074-4.72 7.917.66-2.1 1.7-4.957 2.52-8.462l3.9-16.759-4.75-1.178-5.94 30.079 4.65 1.152 10.19-14.939c1.3-1.868 3.09-5.206 3.96-6.808-.57 1.713-1.84 5.106-2.32 7.139l-4.04 16.54zm23.36 5.754l1.82-4.109-9.33-2.313 3.99-8.987 7.89 1.958 1.84-4.143-7.89-1.958 3.11-7.016 9.33 2.313 1.82-4.11-14.01-3.473-12.58 28.365zm10.64 2.676c5.17 1.282 10.05-.883 12.52-6.462 1.65-3.709 1.02-6.572-.98-7.846 2.56-.7 4.69-3.4 5.42-5.036 2.49-5.613-.47-8.126-4.8-9.2l-6.57-1.629-12.61 28.432zm4.99-17.638l3.32-7.483 1.96.485c2.48.615 3.2 2.054 2.12 4.493-1.07 2.405-3.03 3.588-5.54 2.964zm-5.79 13.064l4.12-9.288 2.27.563c2.41.6 3.7 2.4 2.34 5.475-1.38 3.107-3.67 4.506-6.71 3.752zm18.39 8.639a61.013 61.013 0 013.38-9.545 135.947 135.947 0 019.7-17.919l-4.45-1.7a178.474 178.474 0 00-9.93 18.714 72.116 72.116 0 00-3.55 9.653zm21.19-1.867a30.381 30.381 0 01-6.86-.809c-4.01-1-5.12-2.271-4.45-3.775a4.961 4.961 0 011.71-1.763l-3.44-1.93a8.862 8.862 0 00-2.73 3.255c-1.35 3.041.18 5.794 2.86 7.2a21.863 21.863 0 004.63 1.63 31.337 31.337 0 006.14.93zm7.07-18.9a38.83 38.83 0 00-6.24-2.1 57.718 57.718 0 00-7.51-1.342l-1.97 4.334a41.658 41.658 0 016.95 1.129 30.324 30.324 0 016.75 2.342zm21.02 27.613a22.3 22.3 0 00-3.05-5.8c1.07-2.4 2.61-5.956 4.13-9.4l4.28 1.024 1.82-4.11-4.26-1.057 2.48-5.579-4.39-1.125c-.54 1.387-1.39 3.4-2.35 5.648l-8.39-2.079-1.83 4.142 8.49 2.105-3.43 7.9a8.9 8.9 0 00-2.71-1.078 7.636 7.636 0 00-8.84 4.111c-1.53 3.442.57 6.669 4.03 7.526a7.643 7.643 0 008.43-3.1 21.58 21.58 0 011.5 4.748zm-21.87-.268a71.139 71.139 0 013.75-10.271 118.077 118.077 0 019.4-17.176l-4.37-1.6a168.217 168.217 0 00-9.85 18.622 78.232 78.232 0 00-3.68 9.769zm13.61-4.006c-.85 1.644-2.28 3.033-4.06 2.591-1.61-.4-2.42-1.528-1.91-2.7.43-.969 1.88-1.686 3.76-1.219a4.93 4.93 0 012.21 1.324zm-162.13 1.78c2.48.615 3.13.294 6.5-6.435l-1.95-2.6c-2.29 5-2.46 5.027-2.91 4.914-.25-.061-.35-.087-.14-.554l5.7-12.863-10.9-2.7-2.16 4.878c-1.46 3.274-2.69 5.528-4.44 7.207l1.42-3.208c-1.1.134-2.32.166-3.57.19l2.62-5.914 2.94.728 1.73-3.909-9.68-2.4-1.73 3.909 2.86.71-3.01 6.783a71.079 71.079 0 01-3.69-.323l-1.01 4.535a75.765 75.765 0 009.93-.172 14.234 14.234 0 01-2.51 1.38l1.86 3.837a19.3 19.3 0 007.99-8.218 51.419 51.419 0 01-.9 5.97l2.61-.91-.8 1.8c-.8 1.8-.01 2.557 1.71 2.981zM15 72.688c3.53.875 4.48.665 7.5-4.483l-3.21-2.724c-1.71 3.138-1.84 3.178-2.99 2.893l-3.32-.823c-.32-.078-.55-.172-.34-.64l2.24-5.045a22.458 22.458 0 013.05 3.872l3.78-2.92a22.654 22.654 0 00-3.8-4.021l-2.68 1.932-4.16-1.031-3.56 8.018c-.8 1.805-.26 3.049 1.9 3.586zM2.69 68.889a43.59 43.59 0 007.08-8.183l-3.22-2.28a37.774 37.774 0 01-6.54 7.24zm24.57 3.349a57.94 57.94 0 00-.12-9.154l-4.44.9a38.423 38.423 0 01-.1 9.32zm-.84-17.6a52.957 52.957 0 00.3-5.488l-1.96.663 1.43-3.207 3.42.849zm12.48 23.9c7.36 1.752 14.55-.026 17.58-6.841 2.49-5.613-1.8-8.791-5.61-9.735a16.666 16.666 0 00-5.78-.432c3.42-1.339 10.09-3.876 13.81-5.514l1.48-3.6-17.04-4-1.79 4.3c2.97.736 10.54 2.021 11.01 2.1-13.19 5.519-16.46 6.783-19.73 7.679l1.3 4.143c5.48-2.127 9.32-2.733 13.65-1.659 2.45.606 5.11 2.639 3.82 5.546l-.01.033c-.43.969-2.8 5.611-11.85 3.367a40.447 40.447 0 01-7.33-2.708l-.81 5.065a44.254 44.254 0 006.21 1.986zm44.29-5.336c-1.16 1.383-8.22 9.272-14.48 7.722-2.51-.624-2.43-2.828-1.3-5.367 2.24-5.045 6.25-13.73 9.37-20.076l-4.92-1.405c-2.91 6.548-7.09 15.71-9.52 21.189-2.19 4.945-1.04 8.9 3.85 10.115 6.57 1.628 13.59-1.861 19.47-7.858zm16.56 7c-3.31 3.888-4.58 5.169-5.73 4.883-1.89-.468-.75-5.488 2.66-13.172a89.549 89.549 0 014.03-7.94l-4.61-1.327c-3.03 6.3-3.19 6.663-3.35 7.031-3.16 7.116-5.26 13.863-4.51 17.055a4.313 4.313 0 003.15 3.487c2.93.728 6.34-1.357 9.54-4.9zm11.43 9.212c2.71-6.114 4.52-16.494 2.69-22.25l-4.67.658c1.89 6.143-.74 16.432-3.37 22.454zm19.83 12.037c3.28.814 4.62.59 7.84-5.88l-1.45-1.621 3.5-.207a85.791 85.791 0 002.81-9.91l-2.49.273a82.345 82.345 0 007.13-9.322l-3.19-2.423a80.385 80.385 0 01-9.94 13.3l3.92-8.82-3.85-.953-6.15 13.862a34.891 34.891 0 01-9.06 4.5l1.04 4.041a30.173 30.173 0 005.61-2.948l-.22.5c-1.49 3.375-.78 4.294 1.53 4.866zm-13.81-2.609l6.28-14.165a57.389 57.389 0 00-1 5.758l1.99-2.138 1.95 2.522a84.985 84.985 0 007.04-11.754l-2.79-1.581a62.293 62.293 0 01-4.75 8.243 21.369 21.369 0 01-.37-5.284l2.41.6 1.8-4.042-2.59-.642 1.87-4.209a23.267 23.267 0 003.31-.108l.12-4.307a34.931 34.931 0 01-8.76-.615l-1.05 4.375 2.41.338-1.6 3.608-2.94-.727-1.8 4.076 2.63.616a49.713 49.713 0 01-7.53 8.221l-.37 5.135a82.276 82.276 0 005.96-7.756l-3.36 7.14-2.57 5.78zm26.25-24.9a39.4 39.4 0 00-4.93-4.709l-3.72 2.862a31.981 31.981 0 014.78 4.968zm-12.11 22.92c-.74-.182-.77-.375-.43-1.143l1.39-3.216a58.99 58.99 0 007.08-6.331c-.73 2.342-1.65 5.193-2.48 7.248l-.97-1.131c-2.22 4.827-2.57 5.076-3.68 4.8zm30.68 13.1l4.2-9.455-4.19-1.039-1.74 3.909-4.85-1.2 2.13-4.811 1.78.441c2.8.693 4.84.383 7.04-4.335l-3.07-2.691-.27.526c-1.34 2.856-1.71 2.987-3.39 2.572l-4.23-1.049a1.333 1.333 0 01-.55-.247 41.158 41.158 0 0014.18-5.905l-2.03-2.95a33.761 33.761 0 01-10.8 5.035l2-4.51-3.84-.953-2.73 6.147a42.659 42.659 0 01-7.95.515l.45 4.153a42.414 42.414 0 006-.774c-.12 1.34.49 2.309 2.45 2.794l.77.191-2.14 4.811-4.85-1.2 1.78-4.009-4.16-1.031-4.24 9.555 4.16 1.031.68-1.537 13.9 3.448-.68 1.537zm11.39-21.987l3.08-6.95-10.29-2.513 1.03-2.305-4.75-1.178-1.03 2.305-10.2-2.529-2.98 6.715 1.99.494a30 30 0 01-5.19 4.535l2.46 3.02a35.808 35.808 0 005.79-5.536l-2.22-1.811 1.43.355 1.31-2.94 6.69 1.7-2.94 1.905a11.562 11.562 0 013.03 3.57l3.54-2.386a18.493 18.493 0 00-3.1-2.959l9.46 2.348-1.37 3.107zm-2.03 6.765a41.162 41.162 0 00-.91-6.345l-4.13.906a30.529 30.529 0 01.59 6.635zm3.19 16.589a31.944 31.944 0 003.09.989c4.5 1.118 8.68-1.3 13.67-12.556 3.86-8.686.8-9.482-2.14-10.21-.52-.13-1.06-.226-1.7-.349 1.39-2.176 2.6-4.212 3.56-6.015l-4.33-1.518a59.9 59.9 0 01-3.76 6.634l-6.03-1.088-1.56 4.4c1.64.223 3.25.437 4.95.711a108.7 108.7 0 01-13.41 15.626l3.53 2.727c3.95-3.581 9.78-10.777 14.49-17.545.99.209 1.53.305 2.55.557 1.39.346 1.13 1.727-.22 4.767-2.13 4.811-5.03 10.027-7.79 9.343a24.456 24.456 0 01-4.11-1.576zm23.33-6.971a37.4 37.4 0 001.13-13.629l1.05-.109a32.287 32.287 0 00-.6-6.677l-2.68.264a25.657 25.657 0 01.51 4.8l-3.12.378c1.06 4.526.68 9.921-1.27 15.891zm6.64-13.635a27.475 27.475 0 00-.71-6.368l-2.64.273a23.946 23.946 0 01.56 6.517zM56.11 118.264c1.73-3.984 1.03-7.385-1.51-9.61.55-.532 1.15-1.2 1.63-1.747l-3.72-2.109c-.56.641-1.12 1.391-1.7 1.99-.51-.163-1.03-.293-1.55-.423a16.635 16.635 0 00-3.24-.319c.51-1.061 1.21-2.371 1.75-3.423l11.85 2.937 1.75-3.943-11.43-2.832c.6-1.077 1.28-2.17 1.84-3.179l-4.22-1.157c-.54 1.051-1.24 2.177-1.84 3.287l-6.29-1.559-1.73 3.985 5.99 1.447c-.78 1.587-1.62 3.382-2.35 4.944a19.126 19.126 0 00-12.06 10.138c-1.29 2.907-.64 5.887 2.26 6.606 1.33.33 3.14.109 5.69-1.111a3.267 3.267 0 00.15 1.074l4.41-1.389-.08-1.912a75.7 75.7 0 009.86-8.236c1.22 1.452 1.35 3.263.32 5.568l-.13.3c-1.16 2.531-4.38 6.369-12.67 5.389 0 0 .5 2.016 1.13 4.359 9.06.391 13.67-4.064 15.78-8.809zm-22.43-1.705a13.37 13.37 0 016.05-5.845 43.471 43.471 0 00-2.4 7.492c-.91.478-2.61 1.429-3.59 1.186-.87-.216-.67-1.464-.27-2.366zm14.33-6.608a65.951 65.951 0 01-5.96 5.568 44.229 44.229 0 012.15-5.808 10.682 10.682 0 013.81.231zm12.9 10.356c5.75-2.284 10.5-2.515 13.37-1.8 3.25.8 5.48 2.768 3.83 6.476a8.483 8.483 0 01-7.69 4.658c1.21-3.855.31-7.416-3.53-8.369-2.73-.675-6 .22-7.23 2.993-2.01 4.544 2.99 7.677 6.73 8.6 7.13 1.767 13.95-1.288 16.5-7.034 2.58-5.813-1.22-9.314-5.2-10.3a13.985 13.985 0 00-5.79-.138.21.21 0 01-.12.007c-.07-.017-.06-.051-.06-.051a.432.432 0 01.17-.107c.99-.311 3.12-.931 4.26-1.391 0 0 6.5-2.5 9.28-3.706l1.53-3.626-16.53-3.913-1.78 4.194c.72.14 4.47 1.033 7.23 1.458l3.87.7c-.61.331-3.13 1.3-4.97 2.031-1.8.924-10.32 3.857-14.79 5.2zm5.61 8.511c-2.29-.865-3.73-2.335-3.14-3.672a1.761 1.761 0 012.12-.846c2.06.502 1.33 3.55 1.02 4.509zm28.46 11.469c11.52.26 16.9-7.232 19.12-12.244 3.26-7.35 2.08-14.652-5.99-16.653-8.56-2.122-17.74 5.281-21.06 12.765-3.23 7.283-1.04 11.35 1.72 12.034a6.291 6.291 0 005.39-1.558c3.03-2.473 7.93-8.528 13.84-18.967 3.8 1.757 4.06 6.051 1.83 11.1-1.15 2.573-4.83 9.744-15.38 8.871zm8.68-25.588c-2.47 4.691-10.41 17.335-12.92 16.711-1.75-.433-.26-4.922.26-6.092 2.74-6.19 8.44-10.377 12.66-10.628zm32.95 29.494a31.432 31.432 0 00-6.55-8.225c.96-2.247 2.2-5.054 3.39-7.727l8.8 2.108 1.88-4.243-8.8-2.108 2.8-6.314-4.67-1.27c-1.77 4.42-4.96 12.048-7.23 17.268a12.153 12.153 0 00-2.7-1c-4.47-1.109-8.76.684-10.36 4.292-1.33 3.007-.83 6.766 4.73 8.144 4.26 1.057 7.68-.542 9.96-4.539a27.73 27.73 0 014.37 7.277zm-12.17-6.393c-.93 1.921-2.36 3.9-4.73 3.315-1.96-.485-2.93-1.691-2.27-3.2.76-1.7 3.11-1.677 4.47-1.339a6.985 6.985 0 012.53 1.215zm21.07 6l3.67-7.473 6.2-13.63-4.75-1.178-5.94 13.731-3.02 7.6zm-5.37 7.308a4.044 4.044 0 004.41-2.429c.78-1.771.08-3.5-1.6-3.919a4.069 4.069 0 00-4.41 2.429c-.79 1.766-.05 3.507 1.6 3.914z" fill="#0b0b0b" fill-rule="evenodd"/></svg>