<svg xmlns="http://www.w3.org/2000/svg" width="86.22" height="13.97" viewBox="0 0 86.22 13.97"><path d="M2.54 13.98a12.4 12.4 0 01-.59-6.99A15.908 15.908 0 015.01 0H3.26A15.447 15.447 0 00.29 6.99c-.31 1.74-.57 4.72.5 6.99h1.75zm8.71-5.32l.3-1.67H8.73l.4-1.81h2.67l.29-1.68H9.56c.24-1.04.47-1.97.63-2.62L8.41.81 7.79 3.5H6l-.28 1.68h1.69c-.15.6-.3 1.23-.43 1.81H5.2l-.29 1.67h1.71c-.12.51-.24 1.07-.29 1.37-.35 2.25.92 3.36 3.09 3.36a4.489 4.489 0 004.78-3.82 6.536 6.536 0 00-.76-3.94l-1.81.39a6.89 6.89 0 01.77 3.6 2.451 2.451 0 01-2.69 2.07c-.97 0-1.85-.42-1.63-1.65.07-.4.2-.98.29-1.38h2.88zm6 4.48c3.39-.24 7.25-1.59 7.93-5.4.6-3.44-2.25-3.55-2.92-3.55a26.645 26.645 0 00-5.48.78L17 6.88a17.91 17.91 0 014.92-.9 1.377 1.377 0 011.34 1.82c-.4 2.26-3.45 3.29-6.54 3.52zM25.22 1.3a42.888 42.888 0 00-5.94-.47l-.63 1.83a26.771 26.771 0 015.96.52zm6.18 6.81c-.89 1.78-1.25 2.38-1.71 2.38-.76 0-.8-2-.23-5.22a32.842 32.842 0 01.78-3.38l-1.87-.07c-.55 2.66-.58 2.82-.61 2.97-.52 2.98-.68 5.73-.1 6.86a1.673 1.673 0 001.51 1.03c1.18 0 2.27-1.11 3.15-2.75zm5.17 2.41c.46-2.57.17-6.66-1.06-8.66l-1.7.69c1.28 2.14 1.26 6.27.82 8.79zm5.96-2.41c-.89 1.78-1.25 2.38-1.71 2.38-.76 0-.8-2-.23-5.22a32.842 32.842 0 01.78-3.38l-1.87-.07c-.55 2.66-.58 2.82-.61 2.97-.52 2.98-.68 5.73-.1 6.86a1.673 1.673 0 001.51 1.03c1.18 0 2.27-1.11 3.15-2.75zm5.17 2.41c.46-2.57.17-6.66-1.06-8.66l-1.7.69c1.28 2.14 1.26 6.27.82 8.79zM53.48 13c4.43-.59 5.64-3.46 5.93-5.13.38-2.16-.29-4.38-2.74-4.38a5.3 5.3 0 00-3.12 1.23c.29-1.33.65-2.79.97-4.11L52.8.57c-.21 1.01-.41 2.03-.62 3.14l-2.14.04-.3 1.7 2.02-.03-.19.38a48.248 48.248 0 01-3.17 4.84l.75 1.7a30.838 30.838 0 002.1-3.73c-.11.59-.72 3.63-.9 4.67l1.73-.04c.18-1.28.42-2.79.67-4.28.13-.72.25-1.44.38-2.08a4.8 4.8 0 013.07-1.63c1.36 0 1.64 1.29 1.42 2.55-.21 1.18-1.22 3.11-4.61 3.4zm16.71-1.63a9.14 9.14 0 00-.74-1.13 11.421 11.421 0 00.88-2.86c.47-2.63.26-4.93-1.68-4.93-1.37 0-3.22 1.69-4.12 2.58.33-1.5.69-2.94 1.04-4.42L63.88.59c-.23 1.01-.43 2.04-.64 3.16l-2.08.06-.29 1.64 2.02-.03c-.04.06-.05.15-.09.22a44.84 44.84 0 01-3.33 5.05l.77 1.68a37.3 37.3 0 002.05-3.55l-.37 1.95-.46 2.58 1.68-.03c.18-1.51.43-3.11.71-4.69l.22-1.25c.82-.9 3-3.15 4.12-3.15.78 0 .74 1.85.47 3.36a8.7 8.7 0 01-.44 1.61 2.846 2.846 0 00-1.61-.47 2.575 2.575 0 00-2.56 2.11 1.787 1.787 0 001.92 2.13 3.148 3.148 0 002.44-1.12 13.95 13.95 0 01.66 1.27zm-2.72-.67a1.609 1.609 0 01-1.29.77.625.625 0 01-.74-.64.844.844 0 01.9-.65 1.665 1.665 0 011.13.52zm4.31 2.51a1.628 1.628 0 001.46-1.36 1.058 1.058 0 00-.98-1.35 1.607 1.607 0 00-1.45 1.35 1.061 1.061 0 00.97 1.36zm3.62 0a1.618 1.618 0 001.46-1.36 1.058 1.058 0 00-.98-1.35 1.6 1.6 0 00-1.44 1.35 1.055 1.055 0 00.96 1.36zm3.63 0a1.628 1.628 0 001.46-1.36 1.058 1.058 0 00-.98-1.35 1.6 1.6 0 00-1.44 1.35 1.051 1.051 0 00.96 1.36zm3.95.77a15.588 15.588 0 002.97-6.99c.31-1.72.59-4.67-.5-6.99H83.7a12.487 12.487 0 01.59 6.99 15.908 15.908 0 01-3.06 6.99h1.75z" fill="#0b0b0b" fill-rule="evenodd" opacity=".5"/></svg>