<svg xmlns="http://www.w3.org/2000/svg" width="106.906" height="19.03" viewBox="0 0 213.813 38.06"><path d="M20.192 24.14c6.317-3.16 12.083-9.99 13.953-20.59H6.225l-.932 5.28c2.12 0 17.206-.04 22.121-.24a16.683 16.683 0 01-9.411 10.71 73.65 73.65 0 001.729-7.75l-5.512-.04c-1.7 9.63-3.451 16.83-14.229 20.79l3.388 4.6c8.3-3.76 12.126-9.56 14.328-16.6zm40.18 9.4l.988-5.6H33.125l-.988 5.6h28.238zm1.324-22.23l.96-5.44H39.698l-.96 5.44h22.958zm31.772 14.43a45.148 45.148 0 00-6.426-7.56 106.875 106.875 0 007.87-14.67l-5.184-1.68a86.228 86.228 0 01-6.417 12.8 57 57 0 00-7.532-5.6l-4.138 3.96a59.3 59.3 0 018.343 6.43 51.82 51.82 0 01-16.245 13.64l3.527 4.04a51.826 51.826 0 0016.228-14 45.346 45.346 0 015.362 7.24zm25.2 10.44l.917-5.2-11.467.16a41.517 41.517 0 014.486-4.8c5.484-5.24 9.275-9.04 10.3-14.83.946-5.36-1.356-10-7.955-10h-.04a16.216 16.216 0 00-7.484 1.84l-1.129 6.4c2.917-2.48 5.423-3.08 7.343-3.08 4.679 0 3.879 4.76 3.781 5.32-.586 3.31-2.047 4.79-7.562 10.43-5.319 5.44-9.474 10.4-10.707 13.76h19.519zm39.6-8.2c-3.576-3.76-6.745-10.28-8.552-16.35h9.839l.917-5.2h-11.556l1.136-6.44h-5.039l-1.136 6.44h-11.479l-.925 5.24 9.646-.04c-3.646 6.15-8.949 12.63-14.207 16.59l2.729 4.48a63.244 63.244 0 005.653-6.2l-.769 4.36h5.04l-1.221 6.92h5.04l1.22-6.92h5.04l.833-4.72a39.729 39.729 0 003.576 6.48zm-12.742-2.36l1.5-9.4a69.318 69.318 0 003.221 9.4h-4.722zm-5.04 0h-4.479a91.313 91.313 0 006.248-9.12zm34.125 11.76c6.919 0 8.314-2.24 9.935-9.16l2.171-10.04a10.917 10.917 0 001.08 1.36l4.586-4.67A27.336 27.336 0 01185.472.31l-5.216 1.68a46.251 46.251 0 004.485 13.11h-15.8a46.183 46.183 0 008.634-13.11L173.032.31a35.157 35.157 0 01-12.017 14.83l2.769 4.48a34.946 34.946 0 003.212-2.56l-.509 2.88h5.12c-1.644 5.92-5.2 10.68-13.184 13.52l2.428 4.6c8.634-3.6 13.5-10.12 15.716-18.12h4.639c-.353 2-1.406 6.84-2 9.28-.576 2.36-1.209 3-3.216 3.04-.92 0-2.539-.12-3.764-.2l.7 5.32h1.68zm34.053-10.28l2.016-9.16 3.129-16.59h-5.76l-2.776 16.63-1.249 9.12h4.64zm-3.945 9.44a4.731 4.731 0 004.437-3.84 3.1 3.1 0 00-3.083-3.84 4.731 4.731 0 00-4.437 3.84 3.1 3.1 0 003.089 3.84z" fill="#0b0b0b" fill-rule="evenodd"/></svg>