<svg xmlns="http://www.w3.org/2000/svg" width="242.687" height="90.688" viewBox="0 0 242.687 90.688"><path d="M19.891 45.4c.109-11 .144-18.47.183-22.409a84.945 84.945 0 008.674-12.792l-5.1-2.194a57.375 57.375 0 01-23.641 24.6l3.857 4.225a81.441 81.441 0 0010.759-8.516l-.256 17.962zm25.254-4.151l-1.9-22.956 9.283-2.676a23.274 23.274 0 01-6.945 13.113l4.625 2.394c4.856-5.144 8.085-12.977 8.172-21.749V9.05l-15.562 4.246-.7-8.519-5.293 1.446.7 8.559-7.544 2.063.5 5.147 7.466-2.172 1.821 22.969zm19.9-12.913l.446-9.236.323-16.635-5.366.89-.007 16.624.264 9.078zm-2.263 9.822a4.488 4.488 0 003.431-4.421c.021-2.152-1.461-3.609-3.355-3.294a4.525 4.525 0 00-3.431 4.421c-.015 2.152 1.505 3.602 3.36 3.294zm9.682-11.053l.446-9.236.322-16.635-5.366.89-.002 16.62.265 9.078zM70.2 36.927a4.488 4.488 0 003.431-4.421c.021-2.152-1.461-3.609-3.355-3.3a4.525 4.525 0 00-3.431 4.421c-.016 2.158 1.505 3.608 3.36 3.3zm9.682-11.053l.446-9.237L80.65.002l-5.366.891-.007 16.623.265 9.078zm-2.264 9.822a4.489 4.489 0 003.431-4.421c.022-2.152-1.461-3.609-3.355-3.3a4.525 4.525 0 00-3.431 4.421c-.016 2.157 1.506 3.608 3.36 3.3zM31.933 85.853c3.235-.537 4.119-2.264 4.736-8.894l-4.593-1.589c-.206 4.9-.37 5.534-1.869 5.783l-1.815.3c-.315.053-.591.018-.585-.551l.056-5.685 5.249-.873.249-25.137-23 3.818-.249 25.14 4.932-.819c-.628 3.794-2.5 6.335-8.95 8.864l3.107 4.471c7.362-3.654 10.01-8.472 10.815-14.16l2.919-.485-.082 8.325c-.023 2.355 1.193 2.8 3.284 2.455zm-3.707-15.479l-13.054 2.17.026-2.68 13.06-2.168zm.067-6.7l-13.06 2.168.025-2.477 13.059-2.168zm.064-6.538l-13.059 2.168.023-2.315 13.059-2.168zm13.965 26.1a52.161 52.161 0 006.387-.614c15.427-2.561 15.717-11.933 15.735-13.8.079-7.919-7.25-7.716-10.209-7.225a16.976 16.976 0 00-7.595 3.247c1.207-2.511 2.617-5.664 3.709-8.562l12.349-2.049.05-5.036-10.929 1.855a74.097 74.097 0 001.464-4.662l-5.439.294a62.954 62.954 0 01-1.312 5.245l-8.128 1.39-.05 5 6.9-1.187a85.713 85.713 0 01-6.165 14l4.6 1.305a15.188 15.188 0 019.749-6c2.328-.386 5.553.092 5.521 3.34-.02 1.99-1.084 6.059-10.041 7.546a37.325 37.325 0 01-7.448.425zm40-5.829c-1.447-5.071-3.043-10.928-4.288-16.519 3.172-2.026 5.823-3.277 7.48-3.552.631-.105 2.958-.369 2.931 2.392-.022 2.193-1.461 4.3-5.25 5.047a21.729 21.729 0 01-3 .295l1.688 4.5a28.218 28.218 0 001.7-.2c5.642-.936 9.3-4.747 9.36-10.391v-.122c.036-3.655-1.98-6.929-7.07-6.084a4.953 4.953 0 00-1.066.3 32.874 32.874 0 00-2.392-5.076l-3.839 1.853a37.554 37.554 0 012.2 4.865c-.95.482-2.929 1.378-3.682 1.909-.413-2.04-.748-4.011-1.083-6.023l-4.229 1.472c.374 1.965.824 4.282 1.351 6.789l-4.558 2.784 1.532 4.367c1.508-1.061 2.658-1.86 4.006-2.732 1.243 5.753 2.717 11.995 3.819 16.069zm19.1-3.333a283.777 283.777 0 006.419-27.7l8.247-1.409.048-4.914-7.457 1.278c.292-1.67.545-3.293.756-4.788l-5.283.472c-.211 1.5-.386 3.267-.76 5.194L97 43.268l-.049 4.954 5.761-.956a236.47 236.47 0 01-6.406 26.361zm22.668-9.884a31.713 31.713 0 01-6.241 1.766c-4.458.74-5.509-.545-5.5-1.8a3.659 3.659 0 011.006-2.073l-4.411-.119a7.53 7.53 0 00-1.257 3.7c-.062 6.214 8.1 5.873 11.8 5.258a24.675 24.675 0 004.818-1.246zm.212-17.428a47.835 47.835 0 00-6.506.675 52.524 52.524 0 00-7.186 1.72l.346 4.848a25.1 25.1 0 015.332-1.453 35.471 35.471 0 017.45-.507zm-2.511-4.934a46.243 46.243 0 00-3.36-6.74l-2.693 1.379a40.214 40.214 0 013.28 6.875zm4.513-2.29a34.872 34.872 0 00-3.4-6.368l-2.574 1.36a40.764 40.764 0 013.361 6.658zm15.085 28.348c9.806-3.817 12.957-11.677 13.023-18.378.067-6.741-2.531-10.972-7.521-12.171.571-2 1.1-3.831 1.553-5.731l-4.843-.21c-.373 1.887-.787 3.942-1.32 6.017a18.425 18.425 0 00-7.041 3.074c-.174-2.4-.228-4.827-.245-7.135l-4.586 1.734c.092 2.58.3 5.789.7 9.047a23.191 23.191 0 00-5.42 14.319c-.036 3.573 1.486 9.078 5.865 8.351 1.618-.269 3.287-1.762 4.684-3.615a7.485 7.485 0 00.814 1.283l3.662-3.81a25.384 25.384 0 01-1.356-2.329 101.588 101.588 0 006.147-16.143c2.985.924 4.178 3.766 4.133 8.274-.048 4.832-2.507 10.552-10.685 13.044zm-.209-25.742a106.222 106.222 0 01-3.815 11.336 44.005 44.005 0 01-1.649-8.442 11.884 11.884 0 015.464-2.894zm-6.786 16.978c-.56.9-1.56 2.489-2.507 2.646-1.657.275-2.063-2.536-2.047-4.12a23.016 23.016 0 012.17-8.347 64.543 64.543 0 002.384 9.816zm49.064-13.941l.054-5.442-27.539 4.571-.054 5.442zm29.595-4.912l.054-5.442-27.54 4.571-.054 5.442zm29.594-4.913l.054-5.441-27.539 4.571-.054 5.441z" fill="#e9352c" fill-rule="evenodd"/></svg>