<svg id="txt_12.svg" xmlns="http://www.w3.org/2000/svg" width="192.78" height="106.5" viewBox="0 0 192.78 106.5"><defs><style>.cls-1{fill:#0b0b0b;fill-rule:evenodd}</style></defs><path id="&#x3084;&#x3063;&#x305F;&#x3041;_" class="cls-1" d="M1236.04 1891.69c.53-8.03 1.31-17.59 2.39-26.54 5.23-1.25 9.99-1.93 12.94-1.4 2.76.49 4.57 2.29 3.41 5.44-1.43 3.91-5.56 5.86-11.27 4.84-1.28-.23-2.5-.6-4.03-1.03l.22 6.85a19.236 19.236 0 002.41.58c9.79 1.75 16.31-2.72 19.06-10.2l.05-.15c2.01-5.48.04-10.96-6.56-12.14a19.771 19.771 0 00-2.33-.22 46.929 46.929 0 00-.69-8.7l-6.04.59a61.742 61.742 0 01.54 8.38c-2.34.24-4.62.6-6.92 1 .47-3.27.99-6.43 1.54-9.48l-6.28-.06c-.46 2.97-1.03 6.68-1.58 10.74-3.01.63-5.6 1.14-8.12 1.7l-.06 6.6c2.64-.75 4.81-1.38 7.32-1.95-1.15 9.15-2.3 19.3-2.82 25.71zm26.69 4.01c13.34 1.52 24.03-1.59 27.88-12.08 2.74-7.49-.24-12.8-8.12-14.2-4.13-.74-7.18-.73-18.37-.54l-.24 6.1c12.78-.66 13.52-.68 15.78-.28 3.89.7 6.46 3.29 4.9 7.53-2.2 6.01-8.57 9.34-22.22 7.25zm32.3 6.74a354.713 354.713 0 0019.17-29.95l10.3 1.79 2.12-5.76-9.32-1.62c1.04-1.85 2.02-3.65 2.89-5.32l-6.42-1.66c-.88 1.67-1.82 3.69-3.07 5.8l-7.98-1.42-2.13 5.81 7.19 1.29a295.95 295.95 0 01-18.59 28.37zm30.85-2.15a39.5 39.5 0 01-8.1-.54c-5.56-.99-6.26-2.94-5.72-4.42a4.533 4.533 0 012.06-2.02l-5.15-1.99a9.49 9.49 0 00-3.03 3.83c-2.67 7.29 7.08 10.3 11.71 11.13a30.353 30.353 0 006.19.55zm7.55-20.45a59.965 59.965 0 00-7.95-1.93 67.73 67.73 0 00-9.19-.98l-1.62 5.86a31.48 31.48 0 016.89.52 43.753 43.753 0 018.99 2.52zm10.65 33.15c10.14-.32 15.07-5.48 17.07-10.92l.15-.43c1.7-4.62.63-8.42-2.42-10.69l1.72-2.13-4.56-2.29c-.63.85-1.2 1.71-1.8 2.47a23.912 23.912 0 00-5.13-.46c.47-1.14 1.04-2.41 1.56-3.53l13.54 2.42 1.8-4.91-13.05-2.33c.56-1.23 1.21-2.43 1.76-3.65l-5.16-1.08c-.62 1.26-1.24 2.52-1.81 3.79l-7.04-1.26-1.8 4.91 6.74 1.21c-.75 1.75-1.46 3.7-2.14 5.41a21 21 0 00-12.56 11.93l-.14.38c-1.22 3.34-.19 6.67 3.21 7.28a9.274 9.274 0 006.17-1.54l.26 1.16s.96-.33 2.22-.77zm11.94-12.09c-1.57 4.14-5.36 7.32-13.33 7.01.91-.34 2.01-.75 3.01-1.19a12.152 12.152 0 01-.24-2.22 77.271 77.271 0 009.91-9.56c1.17 1.38 1.68 3.15.73 5.72zm-15.99 1.82c-1.58.88-2.9 1.61-3.73 1.46-.69-.12-.81-1.36-.43-2.41a14.941 14.941 0 016.01-6.95 44.927 44.927 0 00-1.85 7.9zm11.03-9.62a70.727 70.727 0 01-5.38 5.8 40.954 40.954 0 011.69-5.74 11.444 11.444 0 013.69-.06zm23.24 11.98l4.4-10.69 7.34-19.47-6.69-1.19-6.97 19.58-3.49 10.8zm-6.78 10.63a5.624 5.624 0 005.9-3.78c.92-2.52-.21-4.86-2.58-5.28a5.658 5.658 0 00-5.89 3.77c-.93 2.53.26 4.87 2.57 5.29zm18.25-8.58l4.4-10.69 7.34-19.47-6.69-1.19-6.97 19.58-3.49 10.8zm-6.78 10.63a5.612 5.612 0 005.89-3.78c.93-2.52-.21-4.86-2.57-5.28a5.651 5.651 0 00-5.89 3.77c-.93 2.53.26 4.87 2.57 5.29zm18.25-8.58l4.39-10.69 7.35-19.47-6.69-1.19-6.98 19.58-3.49 10.81zm-6.78 10.63a5.612 5.612 0 005.89-3.78c.93-2.52-.21-4.86-2.57-5.28a5.651 5.651 0 00-5.89 3.77c-.93 2.53.25 4.87 2.57 5.29z" transform="translate(-1224.72 -1813.38)"/><path id="&#x304A;&#x5BA2;&#x69D8;&#x304B;&#x3089;&#x9023;&#x7D61;&#x3060;_" class="cls-1" d="M1240.87 1836.05a7.709 7.709 0 002.23.68c4.15.72 7.59-2.12 8.87-5.62 1.8-4.9-1.66-7-4.65-7.54a13.21 13.21 0 00-3.04-.2l1.05-2.85 2.87.49 1.1-3-2.8-.47c.47-1.26.94-2.47 1.37-3.59l-3.22-.57-1.28 3.63-4.25-.74-1.12 3.05 4.3.69-1.4 3.82c-3.28.91-6.42 2.7-7.65 6.07a4.1 4.1 0 002.96 5.6c1.85.33 3.82-.66 4.81-3.36.62-1.71 1.44-3.86 2.17-5.85a8.2 8.2 0 012.72.02c2.05.36 3.83 1.74 2.91 4.24a4.271 4.271 0 01-4.85 2.99 6.951 6.951 0 01-2.45-.92zm15.73-15.33a13.487 13.487 0 00-4.81-4.14l-2.37 2.46a11.023 11.023 0 014.58 4.59zm-16.79 6.16c-.5 1.36-1.07 2.84-1.52 4.08-.3.82-.74 1.4-1.35 1.29a1.517 1.517 0 01-.91-2.06 6.287 6.287 0 013.78-3.31zm27.68 14.95l2.93-8 1.27.49 2.58-2.81a26.165 26.165 0 01-6.3-2.24 19.326 19.326 0 004.49-2.71l.41-1.14 2.84.51 2.03-5.53-7.55-1.35.59-1.61-3.4-.6-.59 1.61-7.53-1.35-2.02 5.53 3.07.55.94-2.58 2.84.51a16.607 16.607 0 01-7.59 3.31l1.07 2.97c.89-.29 1.84-.65 2.82-1.08a21.8 21.8 0 001.9 2.11 29.89 29.89 0 01-7.85-.17l.33 3.28 1.93.01-2.88 7.85 3.13.56.37-1.02 7.42 1.33-.37 1.02zm-1.77-4.25l-7.42-1.32.71-1.94 7.42 1.33zm-7.19-6.11a29.055 29.055 0 006.17-.93 26.644 26.644 0 004.88 2.9zm14.58-7.35l-7.07-1.27c.44-.37.9-.73 1.36-1.15l6.19 1.1zm-4.14 1.9a16.361 16.361 0 01-3.43 1.55 13.977 13.977 0 01-2.56-2.6l.03-.02zm23 16.49a11.356 11.356 0 01-1.79-3.3 18.882 18.882 0 003.63-2.39l-1.65-1.96a16.24 16.24 0 01-2.49 2.04 10.683 10.683 0 01-.13-1.82l.38-1.04 4.43.79 1.01-2.75-4.43-.79.42-1.14 3.58.64.95-2.58-3.59-.64.39-1.06 4.28.76.96-2.62-2-.36c.47-.45.93-.97 1.35-1.45l-2.46-1.1a23.087 23.087 0 01-1.78 2.03l-1.61-.29c-.04-.77-.13-1.66-.24-2.39l-2.85.34c.08.46.18 1 .22 1.54l-1.84-.33-.96 2.63 4.07.73-.39 1.06-3.46-.62-.94 2.58 3.45.62-.41 1.14-4.15-.74-.38 1.04a18.063 18.063 0 01-.7-3.9l1.79.32 1.1-3-1.92-.34 1.51-4.12-2.82-.5-1.5 4.11-2.28-.4-1.1 2.99 2.07.38a47.449 47.449 0 01-5.28 6.6l-.04 3.83a58.887 58.887 0 004.08-6.14l-1.97 5.08-2.56 6.97 2.82.5 4.81-13.13c-.17 1.42-.33 2.98-.38 4.02l2.01-2.3-.27.74 4.15.74-1.98 5.4-.58-1.92a20.036 20.036 0 01-6.1 2.81l.65 2.84a29.214 29.214 0 002.72-1.26l-.12 2.94c3.81.63 4.46.11 6.06-4.25l.49-1.34a13.349 13.349 0 00.88 5.99zm-6.19-7.07a14.739 14.739 0 00-2.15-2.23l-2.48 2.09a13.644 13.644 0 012.14 2.26zm-1.01 4.34c-.46 1.26-.64 1.73-2.17 1.46l-.39-.07a27.034 27.034 0 002.65-1.64zm13.48 6.29c.75.21 1.54.43 2.28.56 3.3.59 6.19-1.35 9.25-9.7 2.35-6.42.22-6.85-2.03-7.25-.38-.07-.78-.12-1.25-.17.9-1.64 1.68-3.16 2.28-4.51l-3.19-.88a44.393 44.393 0 01-2.39 4.95l-4.4-.49-.92 3.24c1.2.08 2.37.16 3.61.28a79.22 79.22 0 01-8.91 11.9l2.67 1.79a86.117 86.117 0 009.6-13.33c.72.1 1.12.15 1.86.28 1.02.18.9 1.19.07 3.44-.97 2.66-2.94 7.51-5.16 7.11a18.031 18.031 0 01-3.04-.94zm16.44-6.23a21.04 21.04 0 00-.21-11.34l-3.14.53c1.14 3.29.96 7.27-.2 11.71zm6.44 10.71c5.41.92 10.27-.8 11.95-5.39 1.39-3.79-.65-6.48-4.39-7.14a13.224 13.224 0 00-7.39 1.05c.8-1.52 1.96-3.56 3.05-5.5l-3.21-.92c-1.45 2.99-3.31 6.43-4.64 9.31l2.51 1.14c1.22-.81 4.56-2.78 8.27-2.12 1.97.36 3.12 1.59 2.47 3.38-1.27 3.47-6.4 3.1-7.99 2.82a27.506 27.506 0 01-5.35-1.54l-.38 3.71a28.532 28.532 0 004.33 1.07zm13.23-19.44a37.133 37.133 0 00-9.37-2.71l-2.12 2.95a35.925 35.925 0 019.45 2.88zm19.05 19.54l.95-2.61-5.2-.92.37-1 4.37.79 3.2-8.73-4.38-.78.37-.99 4.91.88.94-2.58-4.91-.88.5-1.36-2.97-.53-.5 1.36-4.88-.87-.95 2.57 4.89.88-.36.99-4.28-.76-3.2 8.74 4.28.74-.36.99-4.87-.86-.95 2.6 4.87.84-.62 1.69 2.97.53.62-1.69zm-2.45 5.4l2.13-3.06-10.49-1.66-.1-.02a3.171 3.171 0 01-2.93-2.79l3.14-8.58-4.86-.87-1.12 3.08 1.92.34-2.09 5.7a13.6 13.6 0 01-3.48 2.34l.94 3.09a16.686 16.686 0 003.19-2.3c.67 1.75 2.03 2.63 4.26 3.03zm-6.75-20.33a41.745 41.745 0 00-.98-4.93l-3.05 1.17c.29 1.3.79 3.29 1.03 4.94zm3.38 7.73l-1.84-.33.46-1.26 1.84.33zm4.35.78l-1.79-.32.46-1.26 1.79.32zm-3.21-3.9l-1.84-.33.45-1.21 1.83.35zm4.35.78l-1.79-.32.44-1.19 1.79.32zm17.53 19.13l3.29-8.97.43.32 2.21-3.12a10.4 10.4 0 01-3.17-2.31 20.29 20.29 0 004.48-4.61l1-2.75-5.04-.9a15.26 15.26 0 00.94-1.37l-2.75-.99a19.28 19.28 0 01-5.56 5.45l.47 3.33c.51-.36 1.06-.74 1.59-1.14a13.829 13.829 0 00.64 2.17 13.881 13.881 0 01-4.32 1.1c.16-.89.31-1.76.43-2.53l-1.95.26c-.07.43-.17 1-.31 1.6-.48-.03-1.01-.07-1.53-.14 1.98-1.76 4.41-4.07 6.32-6.08l-1.85-1.65c-.89 1.01-1.96 2.14-3.08 3.28l-.31-.87a57.943 57.943 0 004.06-4.77l-2.14-1.36a33.759 33.759 0 01-2.81 3.64l-.33-.74-2.32 2.3a25 25 0 011.57 3.98c-.7.67-1.4 1.31-2.07 1.88-.26-.05-.52-.07-.78-.12-.23-.04-.48-.11-.71-.15l-.67 2.89 2.77.31-3.44 9.39 2.64.47 3.53-9.64.51.02c-.09.4-.21.8-.31 1.16l2.15-.23c.14-.53.27-1.19.42-1.88l-.04 2.48.62-.13-3.25 8.87 2.87.52.32-.9 2.95.53-.33.89zm-15.44-3.97c1.01-1.88 2.32-4.71 3.18-6.83l-1.88-.75a52.38 52.38 0 01-3.21 6.45zm6.88.04c.48-1.76 1.01-4.33 1.33-6.15l-2.03.11c-.36 1.79-1.04 4.3-1.63 6.23zm7.02-.2l-2.94-.52 1.2-3.27 2.94.52zm5.55-14.85a12.673 12.673 0 01-2.73 2.63 13.143 13.143 0 01-.74-3.04 2.614 2.614 0 00.2-.17zm-7.65 8.09a19.32 19.32 0 003.54-1.48 12.058 12.058 0 002.22 2.51zm10.1 11.31c3.01-4.06 6.91-10.33 9.95-15.57l5.36.93 1.1-3-4.85-.84c.54-.96 1.05-1.9 1.51-2.76l-3.34-.87c-.46.87-.95 1.92-1.6 3.02l-4.14-.74-1.11 3.02 3.74.67a153.4 153.4 0 01-9.66 14.75zm16.03-1.12a20.9 20.9 0 01-4.21-.28c-2.89-.52-3.25-1.53-2.97-2.3a2.348 2.348 0 011.06-1.05l-2.67-1.03a4.756 4.756 0 00-1.57 1.99c-1.39 3.79 3.68 5.35 6.08 5.78a15.8 15.8 0 003.22.29zm3.92-10.63a30.339 30.339 0 00-4.13-1 34.142 34.142 0 00-4.78-.51l-.84 3.04a16.668 16.668 0 013.58.27 23.568 23.568 0 014.67 1.31zm-.47-3.57a29.766 29.766 0 00-.59-4.86l-1.95.26a26.262 26.262 0 01.52 4.93zm3.27-.42a22.477 22.477 0 00-.7-4.64l-1.88.27a25.841 25.841 0 01.61 4.81zm-.35 13.75l2.29-5.56 3.81-10.12-3.48-.62-3.62 10.18-1.81 5.62zm-3.52 5.52a2.9 2.9 0 003.06-1.96 1.924 1.924 0 00-1.33-2.75 2.948 2.948 0 00-3.07 1.97 1.926 1.926 0 001.34 2.74zm9.49-4.45l2.28-5.56 3.81-10.12-3.48-.62-3.62 10.18-1.81 5.61zm-3.53 5.52a2.926 2.926 0 003.07-1.96 1.923 1.923 0 00-1.34-2.75 2.947 2.947 0 00-3.06 1.96 1.926 1.926 0 001.33 2.75zm9.49-4.46l2.28-5.56 3.82-10.11-3.48-.63-3.62 10.18-1.81 5.62zm-3.52 5.53a2.911 2.911 0 003.06-1.97 1.914 1.914 0 00-1.34-2.74 2.924 2.924 0 00-3.06 1.96 1.933 1.933 0 001.34 2.75z" transform="translate(-1224.72 -1813.38)"/></svg>