<svg id="about_30.svg" xmlns="http://www.w3.org/2000/svg" width="108" height="101" viewBox="0 0 108 101"><defs><style>.cls-1{fill:#f4342a;stroke:#fff;stroke-linejoin:round;stroke-width:2px;fill-rule:evenodd}</style></defs><path id="_0" class="cls-1" d="M265.252 1562.6q-.372-13.92-12.668-14.18-12.36.255-12.607 14.18v39.31q.246 14.07 12.607 14.19 12.3-.135 12.668-14.19v-39.31zm-38.086-.82q.123-12.81 7.94-19.71a24.73 24.73 0 0117.478-6.85 25.085 25.085 0 0117.786 6.86q7.446 6.915 7.693 19.74v40.82q-.247 12.75-7.693 19.67a25.592 25.592 0 01-17.786 6.99 25.2 25.2 0 01-17.478-6.98q-7.816-6.9-7.94-19.64v-40.9z" transform="translate(-174 -1532)"/><path id="_3" class="cls-1" d="M197.474 1575.03h4.426q6.593 0 10.228-3.77a12.767 12.767 0 003.635-9.44 13.744 13.744 0 00-3.754-9.63 13.092 13.092 0 00-9.355-3.77 11.631 11.631 0 00-7.509 2.74q-3.57 2.745-4.8 8.49h-12.861a27.343 27.343 0 018.055-17.32 23.1 23.1 0 0116.6-7.11q12.238.135 19.434 8.06a27.142 27.142 0 017.01 18.29 28.414 28.414 0 01-1.9 10.28 21.546 21.546 0 01-7.935 8.82 23.121 23.121 0 018.443 9.14 26.251 26.251 0 012.475 11.17q-.123 13.02-7.8 20.51-7.56 7.68-19.418 7.81a24.135 24.135 0 01-16.224-6.09q-7.067-6.075-9.155-17.61h12.853a18.774 18.774 0 004.859 7.51 11.937 11.937 0 008.487 2.99 12.748 12.748 0 009.532-4.01q3.936-3.75 4.059-10.69-.123-7.065-4.058-10.95a13.563 13.563 0 00-9.837-3.75h-5.487v-11.67z" transform="translate(-174 -1532)"/></svg>