<svg xmlns="http://www.w3.org/2000/svg" width="60.719" height="15.922" viewBox="0 0 121.438 31.843"><path d="M21.493 22.84a11.818 11.818 0 01-3.81 6.693 10.627 10.627 0 01-6.849 2.316 10.9 10.9 0 01-9.506-5.629q-.333-.708-.6-1.353a8.944 8.944 0 01-.416-1.676A53.921 53.921 0 010 15.929a53.979 53.979 0 01.312-7.3 8.839 8.839 0 011.019-2.987 10.7 10.7 0 013.538-3.867A10.942 10.942 0 0118 2.695a11.906 11.906 0 013.5 6.586h-4.877a6.929 6.929 0 00-2.043-3.23 5.9 5.9 0 00-3.751-1.313 6.208 6.208 0 00-2.793.667A5.855 5.855 0 006.119 7.02a5.261 5.261 0 00-1.188 2.6 38.611 38.611 0 00-.334 6.308 37.718 37.718 0 00.334 6.265 5.3 5.3 0 001.188 2.649 5.416 5.416 0 001.919 1.571 5.267 5.267 0 002.794.711q3.878 0 5.8-4.285h4.871zM25.499.267h4.593v26.858h14.789v4.466H25.499V.267zm23.439 15.662a54.2 54.2 0 01.312-7.319 8.874 8.874 0 011.019-2.993 10.671 10.671 0 013.536-3.853 10.222 10.222 0 015.97-1.755 10.42 10.42 0 019.485 5.629 7.344 7.344 0 011.06 2.987 62.3 62.3 0 01.27 7.3 62.437 62.437 0 01-.27 7.262 7.386 7.386 0 01-1.061 3.029 10.092 10.092 0 01-3.453 3.825 10.58 10.58 0 01-6.031 1.8 10.9 10.9 0 01-9.506-5.629q-.333-.708-.6-1.353a9.1 9.1 0 01-.416-1.676 54.1 54.1 0 01-.312-7.262zm4.594 0a37.868 37.868 0 00.333 6.265 5.317 5.317 0 001.188 2.649 5.412 5.412 0 001.918 1.571 5.266 5.266 0 002.793.711 5.533 5.533 0 002.856-.711 5.117 5.117 0 001.834-1.571 5.588 5.588 0 001.23-2.649 40.342 40.342 0 00.313-6.265 41.3 41.3 0 00-.313-6.308 6.577 6.577 0 00-3.064-4.22 6.536 6.536 0 00-2.856-.667 6.208 6.208 0 00-2.793.667 5.859 5.859 0 00-1.918 1.615 5.278 5.278 0 00-1.188 2.6 38.764 38.764 0 00-.333 6.308zm23.647 8.074a13.072 13.072 0 008.622 3.122q5.914-.085 6-4.365.043-3.506-3.954-4.215-1.833-.258-4.018-.581a9.806 9.806 0 01-5.953-2.988 8.481 8.481 0 01-2.1-5.806 8.724 8.724 0 012.641-6.623Q80.973.052 85.673.009a16.693 16.693 0 019.834 3.236l-2.561 3.9a13.6 13.6 0 00-7.517-2.411 5.6 5.6 0 00-3.539 1.1 4.123 4.123 0 00-1.52 3.4 3.509 3.509 0 001.02 2.451 5.77 5.77 0 003.267 1.549q1.25.214 3.414.494a9.351 9.351 0 016.307 3.161 9.072 9.072 0 012.019 5.849q-.228 8.988-10.646 9.117a16.912 16.912 0 01-11.583-4.276zM102.047.267h19.383v4.467h-14.792v8.963h12.624v4.207h-12.624v9.221h14.789v4.466h-19.38V.267z" fill="#fff" fill-rule="evenodd"/></svg>