<svg xmlns="http://www.w3.org/2000/svg" width="60.406" height="15.781" viewBox="0 0 120.812 31.562"><path d="M-.004-.014h4.329l8.7 20.418L21.559-.014h4.347V31.31h-4.6V11.775h-.1l-6.35 15.044h-3.831l-6.35-15.044h-.083V31.31H-.004V-.014zm37.3 0h19.382v4.467H41.893v8.963h12.624v4.207H41.893v9.221h14.789v4.466H37.3V-.014zm28.43 0h4.331l13.74 22.268h.084V-.014h4.593V31.31h-4.351L70.406 9.042h-.083V31.31h-4.594V-.014zm33.5 0h4.594v20.213a6.574 6.574 0 001.792 4.881 5.855 5.855 0 004.4 1.764 5.99 5.99 0 004.438-1.764 6.665 6.665 0 001.751-4.881V-.014h4.594v20.711a10.875 10.875 0 01-18.4 7.845 10.291 10.291 0 01-3.165-7.832V-.014z" fill="#fff" fill-rule="evenodd"/></svg>