<svg id="hero_catch.svg" xmlns="http://www.w3.org/2000/svg" width="323.031" height="451.688" viewBox="0 0 323.031 451.688"><defs><style>.cls-1{fill:#fff;fill-rule:evenodd}</style></defs><path id="&#x305D;&#x306E;&#x6570;&#x5B57;&#x306E;" class="cls-1" d="M851.91 451.63a58.075 58.075 0 01-7.1.368c-6.636 0-21.843-.276-21.843-10.23 0-8.571 10.6-14.746 17.6-17.142 4.608-1.567 9.677-1.935 22.027-1.935l-.461-11.7c-11.429.737-29.861 2.488-41.566 4.147 8.571-4.239 22.4-13.824 29.953-21.013l-.276-10.138c-9.124.645-26.635 1.2-39.446 1.29h-4.7l.368 11.7c7.281-.276 18.709-.737 26.635-1.382-6.82 5.9-21.658 16.958-29.215 19.354a37.284 37.284 0 01-9.585 2.3l1.843 11.244c9.861-1.936 16.958-3.226 28.847-4.608-7.189 3.963-14.377 10.6-14.377 19.262 0 16.589 18.34 21.289 33.086 21.289 2.4 0 4.793-.184 7-.368zm-21.2 105.624c27.649-6.451 32.534-28.386 32.534-42.211 0-20.275-10.507-37.694-31.8-37.694-22.58 0-36.588 24.054-36.588 44.7 0 20.091 9.492 28.847 16.773 28.847 3.871 0 8.111-2.028 11.152-7.189 4.608-8.018 9.862-26.082 12.9-55.666 10.875 2.027 16.036 12.534 16.036 26.45 0 7.1-1.2 27.189-27.188 31.52zm-6.359-68.938c-.922 13.179-6.452 49.492-13.087 49.492-4.608 0-5.807-12.074-5.807-15.3.002-17.049 9.127-30.966 18.896-34.192zm39.722 151.615c-4.332-4.147-8.479-9.861-12.35-17.6 4.885-9.953 7-23.041 7.834-33.732h3.687v-11.062h-17.786A112.408 112.408 0 00848.039 565l-10.323-1.475c-1.382 10.23-4.239 22.58-9.4 31.243a34.7 34.7 0 01-6.636-5.9h9.032v-9.585h-12.718V563.62h-9.77v15.668h-13.363v9.585h9.677a41.547 41.547 0 01-11.152 10.138l6.175 9.032a49.24 49.24 0 008.663-13v10.506h9.77V594.5a63.8 63.8 0 007.741 11.8l3.318-5.991 3.779 7c.829-1.475 1.751-3.042 2.488-4.7a115.062 115.062 0 005.161 19.447 45.248 45.248 0 01-12.257 15.114c-1.567-1.013-3.318-1.935-4.977-2.949a44.683 44.683 0 004.7-12.35h4.793v-10.418H815.6l1.2-3.871-9.584-1.475a47.2 47.2 0 01-1.475 5.346h-11.157v10.414h7.005a76.542 76.542 0 01-4.7 8.756 103.631 103.631 0 0111.521 5.806c-3.871 1.751-8.848 2.581-15.115 2.949l4.608 11.06c6.451-1.2 13.732-3.779 19.078-8.387a69.981 69.981 0 017.649 6.359l3.318-5.253 4.055 7.1a57.677 57.677 0 0014.008-17.057 74.686 74.686 0 0010.968 16.958zM849.79 588.6a102.359 102.359 0 01-3.59 21.47 170.492 170.492 0 01-4.239-21.474h7.834zm-23.963-9.5a49.71 49.71 0 004.885-10.415l-8.2-3.225a41.4 41.4 0 01-4.148 9.585zm-18.064-4.148a79.489 79.489 0 00-4.7-9.308l-7.742 4.608a64.525 64.525 0 015.254 8.94zm10.968 46.911a34.687 34.687 0 01-3.5 8.111l-6.36-3.042a39.086 39.086 0 002.765-5.069h7.1zm44.146 94.657v-11.147h-27l-.096-.373a102.813 102.813 0 0015.852-14v-6.359h10.691v-21.2h-27.557v-7.833h-12.534v7.833h-27v21.29l10.138-.092v8.3h29.308a57.8 57.8 0 01-6.912 4.976H823.8v7.466h-29.124v11.151H823.8v8.756c0 4.7-.369 5.437-8.018 5.437h-5.438l4.608 12.166c19.078-.184 20.921-2.581 20.921-17.327v-9.032h27zm-11.8-34.745h-44.604v-7.373h44.607v7.373zM830.712 833.76c27.649-6.452 32.534-28.386 32.534-42.211 0-20.276-10.507-37.695-31.8-37.695-22.58 0-36.588 24.055-36.588 44.7 0 20.091 9.492 28.847 16.773 28.847 3.871 0 8.111-2.028 11.152-7.189 4.608-8.018 9.862-26.082 12.9-55.667 10.875 2.028 16.036 12.535 16.036 26.451 0 7.1-1.2 27.188-27.188 31.52zm-6.359-68.938c-.922 13.179-6.452 49.491-13.087 49.491-4.608 0-5.807-12.073-5.807-15.3 0-17.049 9.125-30.965 18.894-34.191z" transform="translate(-541.031 -382.062)"/><path id="&#x9577;&#x65B9;&#x5F62;_516" class="cls-1" d="M653.668 382.053h100V589.06h-100V382.053z" transform="translate(-541.031 -382.062)"/><path id="&#x30A6;&#x30E9;" d="M687.255 482.21c38.709-8.11 46.358-34.377 46.358-69.491h-23.225V397.7h-12.626v15.022H675.09v34.558l11.981-.092.092-23.317h33.455c-.46 20.829-5.9 41.75-40.459 46.082zm-.368 92.355c30.966-5.991 46.081-25.345 46.634-57.326h-60.09v12.166c1.935 0 32.533-.461 45.9-.646-1.843 16.682-12.442 30.691-40.736 33.732zM727.346 506v-11.8l-47.648.092v11.8z" transform="translate(-541.031 -382.062)" fill="#e9352c" fill-rule="evenodd"/><path id="&#x306B;&#x306F;_" class="cls-1" d="M687.44 694.227a154.254 154.254 0 01-2.028-25.8 322.03 322.03 0 014.147-50.506l-12.349-1.474c-1.936 15.022-3.871 34.008-3.871 52.625a183.549 183.549 0 001.751 26.174zm48.385-17.695a72.7 72.7 0 01-17.142 2.212c-10.6 0-14.562-2.489-14.562-6.636 0-1.843 1.014-3.686 2.212-5.437L696.1 664a19.094 19.094 0 00-3.041 9.769c0 8.387 6.543 14.285 14.377 16.129a59.1 59.1 0 0012.719 1.2 76.381 76.381 0 0015.575-1.475zm-3.133-51.332a103.079 103.079 0 00-17.05-1.382 141.992 141.992 0 00-19.263 1.29l-.092 11.981a101.753 101.753 0 0117.7-1.474c6.543 0 13.363.368 18.524 1.659zm5.808 147.832a74.633 74.633 0 00-13.366-12.532c0-6.636-.092-16.405-.092-25.9l11.244-.092v-11.336h-11.244v-15.391l-11.612-.092c.184 3.778.276 9.308.368 15.483h-22.119V734.6h22.4l.184 21.751a24.564 24.564 0 00-7.557-1.014c-8.94 0-16.682 6.083-16.682 15.668 0 9.492 8.387 16.22 17.511 16.22 8.848 0 14.654-4.424 16.774-12.9a72.16 72.16 0 018.571 10.876zm-52.256 12.811a180.828 180.828 0 01-1.936-27.833 277.512 277.512 0 014.24-48.478l-12.074-1.29a395.959 395.959 0 00-3.778 52.348 196.853 196.853 0 001.566 26.543zm28.107-18.343c-.276 4.609-2.212 8.94-6.912 8.94-4.239 0-7.373-2.3-7.373-5.53 0-2.672 2.673-5.345 7.65-5.345a14.508 14.508 0 016.635 1.935zm22.857 52.445a78.2 78.2 0 00-18.8-21.658l-9.308 7.742c5.991 4.976 11.705 12.073 17.05 22.672z" transform="translate(-541.031 -382.062)"/><path id="&#x4EBA;&#x304C;&#x3044;&#x308B;_" class="cls-1" d="M612 458.857c-19.631-12.166-26.912-30.783-29.308-51.335V383.1h-12.35v21.75c0 17.511-6.452 40.552-29.308 53.916l8.2 11.428c15.114-10.23 23.317-23.962 27.833-39.814 4.608 16.128 13.087 29.676 26.911 39.814zm-48.11 99.173c2.765.276 5.715.553 8.387.553 11.889 0 19.262-8.571 19.262-39.63 0-23.963-8.11-24.055-15.852-24.055-1.382 0-2.765.092-4.423.184 1.013-6.267 1.751-12.073 2.119-17.142l-11.883-1.106a138.442 138.442 0 01-1.935 18.8l-15.484 1.014.919 11.89c4.147-.461 8.2-.921 12.534-1.29-3.318 15.3-8.94 33.547-15.391 47.095l11.244 4.608c5.622-11.336 11.889-32.81 15.944-52.532 2.581-.093 3.963-.185 6.636-.185 3.686 0 4.516 3.6 4.516 11.981 0 13.272-1.383 28.018-8.663 28.018a67.5 67.5 0 01-11.429-1.382zm48.11-31.7c-1.567-11.981-6.728-25.345-11.7-34.561l2.4-.922a101 101 0 00-8.479-16.221l-6.083 2.3a79.829 79.829 0 016.267 11.613l-7 2.857c7.281 10.6 12.073 24.239 13.732 40.275zm1.382-37.971A84.84 84.84 0 00605 472.963l-5.99 2.3a75.267 75.267 0 018.2 15.852zm-40.275 130.6c-3.779 11.7-5.438 15.668-8.479 15.668-4.977 0-7.558-13.179-7.558-34.377a212.378 212.378 0 011.2-22.211l-12.35-.461c-.553 17.511-.553 18.525-.553 19.538 0 19.631 2.119 37.7 7.281 45.16 3.225 4.7 7.28 6.728 11.151 6.728 7.742 0 13.64-7.281 17.511-18.064zm36.865 15.852c0-16.866-6.636-43.777-17.05-56.957l-10.415 4.516c10.968 14.1 15.576 41.289 15.668 57.879zM549.7 716.93c11.244-9.216 22.3-12.719 29.861-12.719 8.571 0 15.944 3.5 15.944 13.733 0 7.1-5.069 14.193-13.363 16.313-1.2-10.323-7.1-18.617-17.235-18.617-7.188 0-14.008 4.239-14.008 11.889 0 12.534 15.206 17.234 25.068 17.234 18.8 0 31.8-11.8 31.8-27.649 0-16.036-12.718-22.395-23.225-22.395a32.1 32.1 0 00-13.917 3.225.451.451 0 01-.276.093c-.184 0-.184-.093-.184-.093a.718.718 0 01.276-.368c2.028-1.383 6.451-4.24 8.663-6.083 0 0 12.811-10.23 18.157-14.93l-.185-9.954-43.409.461.185 11.52c1.843-.092 11.7-.184 18.709-.829l9.953-.645c-1.106 1.2-6.082 5.161-9.677 8.11-3.318 3.41-20.46 15.944-29.676 22.027zm22.3 17.7c-6.359-.737-11.336-3.5-11.336-7.188 0-2.305 2.027-3.41 4.147-3.41 5.44-.005 6.914 8.013 7.189 10.593zm24.7 48.668c7 0 12.442-5.991 12.442-14.378 0-8.294-5.346-14.561-12.442-14.561s-12.442 6.267-12.442 14.561c.002 8.38 5.442 14.373 12.442 14.373zm0-7.1c-3.41 0-5.807-3.041-5.807-7.281 0-4.055 2.4-7.373 5.807-7.373s5.806 3.318 5.806 7.373c.002 4.238-2.394 7.283-5.806 7.283z" transform="translate(-541.031 -382.062)"/></svg>