<svg xmlns="http://www.w3.org/2000/svg" width="333.75" height="53.89" viewBox="0 0 667.5 107.78"><path d="M126.605 56l2.1-11.9h-20.1l2.875-12.91h19l2.117-12h-18.1c1.705-7.4 3.387-14.1 4.5-18.7l-12.712-.5-4.387 19.2h-12.8l-2.016 12h12.1c-1.058 4.3-2.152 8.8-3.075 12.91h-12.7l-2.1 11.9h12.2c-.853 3.7-1.658 7.7-2.029 9.8-2.54 16.1 6.567 24 22.068 24 26.1 0 32.689-19.2 34.118-27.3 2.187-12.4-3.367-24.01-5.444-28.11l-12.9 2.8c3.224 6.11 6.808 18.11 5.467 25.71-.476 2.7-3.01 14.8-19.211 14.8-6.9 0-13.172-3-11.62-11.8.512-2.9 1.435-7 2.047-9.9h20.6zm45.274 27.45c25.19-1.6 43.938-10.91 47.584-31.58 2.6-14.76-4.677-23.6-19.716-23.6-7.895 0-13.529 1.04-34.168 5.08l1.566 11.37c23.426-5.45 24.792-5.73 29.115-5.73 7.426 0 13.028 3.95 11.553 12.31-2.088 11.84-12.758 20.12-38.722 20.77zm115.743-56.92a158.889 158.889 0 00-19.952 4.54c-.885-5.46-.381-12.6.819-19.41.311-1.76.691-3.44 1.071-5.12h-11.843l-.238 1.34c-1.348 7.65-2.691 19.07-1.02 27.22-10.411 5.21-19.635 12.26-21.68 23.85-2.267 12.86 6.826 20.84 27.658 20.84a119.632 119.632 0 0019.7-1.68s2.721-12.1 2.835-12.27a113.179 113.179 0 01-21.765 2.44c-11.172 0-18.441-2.61-17.122-10.08 2.592-14.7 31.206-18.82 42.6-20.08zm61.634 43.39c-2.891-3.33-5.412-7.92-7.425-14.14 5.332-7.99 8.886-18.5 11.066-27.09h2.96l1.566-8.88H343.14a103.771 103.771 0 003.846-10.06l-8.08-1.18c-2.558 8.21-6.6 18.13-11.971 25.08a21.479 21.479 0 01-4.493-4.73h7.252l1.357-7.7h-10.213l2.218-12.58h-7.844l-2.218 12.58h-10.731l-1.357 7.7h7.771a43.426 43.426 0 01-10.39 8.14l3.68 7.25a50.7 50.7 0 008.8-10.44l-1.488 8.44h7.845l1.566-8.88a40.677 40.677 0 004.546 9.47l3.512-4.81 2.043 5.63c.875-1.19 1.837-2.44 2.663-3.78a84.439 84.439 0 001.392 15.62 47.35 47.35 0 01-11.982 12.14c-1.115-.82-2.39-1.56-3.579-2.37a43.988 43.988 0 005.522-9.92h3.849l1.474-8.36h-13.769l1.51-3.11-7.488-1.18a45 45 0 01-1.941 4.29h-8.954l-1.474 8.36h5.624a78.028 78.028 0 01-5.014 7.03 66.847 66.847 0 018.429 4.66c-3.356 1.41-7.47 2.08-12.554 2.37l2.134 8.88a39.85 39.85 0 0016.507-6.73 43.185 43.185 0 015.242 5.1l3.408-4.21 2.251 5.69a60 60 0 0013.663-13.69 48.061 48.061 0 006.406 13.62zm-4.2-41.23a93.183 93.183 0 01-5.926 17.25 129.241 129.241 0 01-.364-17.25h6.29zm-17.9-7.62a49.893 49.893 0 005.4-8.36l-6.13-2.59a41.243 41.243 0 01-4.687 7.7zm-13.918-3.33a52.908 52.908 0 00-2.457-7.47l-6.869 3.7a42.012 42.012 0 012.953 7.18zm2.166 37.67a34.387 34.387 0 01-3.96 6.51l-4.676-2.44a40.119 40.119 0 002.937-4.07h5.7zm90.712 1.25l1.494-8.47h-20.513l-.021-.28a101.989 101.989 0 0013.918-10.65l.851-4.83h8.121l2.839-16.1h-20.932l1.049-5.95h-9.521l-1.049 5.95H361.84l-2.851 16.17 7.713-.07-1.111 6.3h22.262a56.023 56.023 0 01-5.917 3.78h-3.005l-1 5.68h-22.128l-1.493 8.47h22.121l-1.173 6.65c-.629 3.57-1.008 4.13-6.819 4.13h-4.13l1.871 9.24c14.516-.14 16.237-1.96 18.212-13.16l1.21-6.86h20.512zm-4.307-26.4h-33.885l.988-5.6h33.884zm48.1 32.05a48.487 48.487 0 01-5.944.32c-11.1-.19-15.058-5.69-13.759-13.05 1.5-8.51 9.358-16.77 17.542-20.35 3.192-1.41 7.672-1.41 9.079-1.41l2.764-.06.805-8.2c-12.434.84-33.534 1.09-44 1.28l-1.332 8.64c6.52-.32 16.255-1.08 21.867-1.34-7.573 5.57-13.683 14.08-15.128 22.27-2.405 13.63 7.066 21.25 22.169 21.25.9 0 1.867-.07 2.711-.13zm3.821-18.75a68.8 68.8 0 00-3.558-11.39l-4.623 1.54a50.958 50.958 0 013.332 11.58zm7.706-2.68A56.98 56.98 0 00457.723 30l-4.43 1.53a60.855 60.855 0 013.527 11.2zm35.857 24.34c-5.733-6.96-17.113-16.26-21.233-20.46a2.455 2.455 0 01-1-2.16c.211-1.2 1.411-2.22 11.655-8.94 5.494-3.6 11.733-7.68 16.938-11.34l-5.246-6.66a185.882 185.882 0 01-15.283 11.82c-5.144 3.66-10.085 6.84-12.876 9.06a10.169 10.169 0 00-3.987 5.94 7.381 7.381 0 002.13 6.3c4.324 4.74 15.606 14.94 20.711 22.74zm46.925-5.36a38.967 38.967 0 00-10.532-9.18c.4-2.27.813-4.92 1.241-7.35h10.854l1.133-6.42h-10.851l.879-5.29h12.313l1.133-6.43h-12.257l1.114-6.32h-7.02c-.228 1.3-.574 3.57-1.006 6.32l-15.724.05-1.133 6.43h15.877l-.879 5.29h-14.637l-1.133 6.43 14.752-.06-.908 5.46a19.093 19.093 0 00-4.244-.43c-6.1 0-12.721 3.24-13.845 9.61-.8 4.54 1.425 9.99 10.011 9.99 6.1 0 10.584-3.67 12.676-9.72a32.6 32.6 0 017.117 8.64zm-18.012-4.43c-.93 3.13-2.785 6-6.133 6-2.268 0-4.561-1.08-4.123-3.57.428-2.43 3.7-3.24 5.593-3.24a13.574 13.574 0 014.666.81zm58.461 11.45l18.255-45.96h-7.4l-9.465 25.82c-1.48 4.1-2.909 9.45-4.061 13.23.282-4.05.681-9.99.668-13.29l-.426-25.76h-6.264l-9.52 25.82c-1.765 4.8-3.086 10.15-4.006 13.23.2-3.3.678-7.83.6-13.23l-.362-25.82h-7.345l2.212 45.96h7.182l9.453-25.44c1.209-3.18 2.613-8.69 3.295-11.34-.206 2.7-.834 8.1-.792 11.24l.086 25.54h7.884zm35.16-.92l1.128-6.39h-13.882l2.467-13.99h11.753l1.137-6.45h-11.753l1.926-10.92h13.885l1.128-6.4h-20.853l-7.786 44.15h20.854zm15.85.05c7.7 0 13.783-4.73 15.314-13.41 1.018-5.78-.86-9.57-4.1-10.66 3.346-1.88 5.392-6.4 5.842-8.95 1.54-8.73-3.48-11.23-9.928-11.23h-9.774l-7.8 44.25h10.452zm.872-26.47l2.054-11.64h2.912c3.692 0 5.2 1.76 4.531 5.56-.66 3.74-3 6.08-6.741 6.08h-2.756zm-3.586 20.34l2.549-14.46h3.38c3.589 0 6.03 2.08 5.186 6.86-.853 4.84-3.575 7.6-8.1 7.6h-3.016zm28.042-5.1l2.54-11.75 3.959-21.27h-7.073l-3.552 21.32-1.6 11.7h5.72zm-5 12.12a5.844 5.844 0 005.343-4.94c.486-2.76-1.1-4.94-3.6-4.94a5.881 5.881 0 00-5.343 4.94c-.481 2.75 1.162 4.94 3.606 4.94zM69.998 107.78v-3.37h79.5v3.37h-79.5zm79.5 0v-3.37h74.733v3.37h-74.729zm74.729 0v-3.37h66.779v3.37h-66.775zm66.779 0v-3.37h58.829v3.37H291.01zm58.829 0v-3.37h55.649v3.37h-55.645zm55.649 0v-3.37h50.88v3.37h-50.88zm50.88 0v-3.37h47.7v3.37h-47.7zm47.7 0v-3.37h91.8v3.37h-91.8zm91.8 0v-3.37h66.714v3.37h-66.712z" fill-rule="evenodd" fill="#0b0b0b"/><path d="M39.084 56.56L.009 43.4v26.32z" fill="#e9352c" fill-rule="evenodd"/></svg>