<svg id="data_button_txt-hover-pc.svg" xmlns="http://www.w3.org/2000/svg" width="247.25" height="128.56" viewBox="0 0 247.25 128.56"><defs><filter id="filter" x="1152.72" y="5559.81" width="27.84" height="17.81" filterUnits="userSpaceOnUse"><feFlood result="flood" flood-color="#fff"/><feComposite result="composite" operator="in" in2="SourceGraphic"/><feBlend result="blend" in2="SourceGraphic"/></filter><style>.cls-1{fill:#fff;fill-rule:evenodd}</style></defs><path id="&#x3082;&#x3063;&#x3068;&#x6570;&#x5B57;&#x3067;" class="cls-1" d="M1219.47 5582.2l1.62-5.3-9.15-1.13 2.03-5.71 8.65 1.07 1.64-5.35-8.24-1.01c1.19-3.27 2.33-6.23 3.09-8.26l-5.75-.94-3.08 8.49-5.82-.72-1.59 5.35 5.5.68c-.72 1.9-1.47 3.89-2.12 5.7l-5.78-.71-1.62 5.3 5.55.68c-.59 1.64-1.18 3.42-1.47 4.35-2.06 7.19 1.65 11.3 8.7 12.16 11.88 1.47 15.96-6.9 17.06-10.51 1.69-5.52-.19-11.12-.9-13.1l-6.03.55c1.13 2.96 2.09 8.62 1.05 12.01-.37 1.2-2.2 6.57-9.57 5.66-3.15-.39-5.83-2.1-4.63-6.02.39-1.29 1.04-3.11 1.48-4.4zm19.05 14.98c11.52.68 20.55-2.49 23.35-11.67 2.01-6.56-.8-10.97-7.63-11.81-3.58-.45-6.19-.29-15.79.39l.08 5.25c10.94-1.17 11.57-1.22 13.53-.98 3.37.42 5.7 2.52 4.56 6.24-1.61 5.26-6.91 8.41-18.74 7.26zm57.05-19.55a77.038 77.038 0 00-9.73.98 29.948 29.948 0 011.52-9.15c.25-.82.53-1.59.81-2.36l-5.61-.7-.19.63c-1.09 3.54-2.4 8.88-2.08 12.84-5.24 1.86-10.03 4.67-11.67 10.05-1.83 5.96 2.01 10.27 11.89 11.49a57.217 57.217 0 009.44.35s2-5.58 2.06-5.65a54.122 54.122 0 01-10.46-.11c-5.3-.66-8.59-2.32-7.53-5.78 2.09-6.82 15.9-7.1 21.37-7.03zm29.15 25.67a20.738 20.738 0 01-2.95-7.81c3.27-3.81 5.79-9.03 7.47-13.35l1.53.19 1.38-4.51-7.41-.91a52.666 52.666 0 002.64-4.98l-4.12-1.13c-1.85 4.1-4.58 8.99-7.81 12.26a11.219 11.219 0 01-2.03-2.75l3.76.46 1.2-3.9-5.3-.66 1.95-6.38-4.07-.51-1.95 6.39-5.57-.68-1.2 3.9 4.03.5a22.349 22.349 0 01-5.91 3.56l1.45 4a26.561 26.561 0 005.23-4.85l-1.31 4.28 4.07.5 1.38-4.51a21.606 21.606 0 001.75 5.21l2.13-2.27.71 3.05c.53-.56 1.11-1.15 1.62-1.79a44.293 44.293 0 00-.28 8.19 24.515 24.515 0 01-6.99 5.54c-.53-.5-1.14-.96-1.71-1.46a22.39 22.39 0 003.5-4.8l2 .25 1.3-4.25-7.14-.88.98-1.51-3.81-1.1a22.9 22.9 0 01-1.28 2.11l-4.65-.57-1.3 4.24 2.92.36a41.11 41.11 0 01-3.05 3.33 35.385 35.385 0 014.08 2.96 20.1 20.1 0 01-6.67.42l.54 4.75a20.984 20.984 0 009-2.44 22.655 22.655 0 012.39 2.99l2.04-1.98.8 3.1a31.337 31.337 0 007.97-6.23 25.293 25.293 0 002.45 7.48zm.45-21.66a49.064 49.064 0 01-4.18 8.57 68.283 68.283 0 01.91-8.97zm-8.81-5.1a25.967 25.967 0 003.34-3.99l-3.02-1.74a21.281 21.281 0 01-2.92 3.69zm-7.01-2.62a27.405 27.405 0 00-.79-4.03l-3.8 1.48a22.593 22.593 0 011.07 3.91zm-1.28 19.69a17.6 17.6 0 01-2.47 3.13l-2.27-1.57a20.023 20.023 0 001.79-1.92zm46.38 6.22l1.28-4.2-10.41-1.29.01-.14a52.109 52.109 0 007.73-4.53l.73-2.4 4.12.51 2.45-8-10.63-1.31.91-2.96-4.84-.59-.9 2.95-10.42-1.28-2.45 8.03 3.92.45-.96 3.13 11.3 1.39a26.3 26.3 0 01-3.24 1.55l-1.53-.19-.86 2.82-11.23-1.38-1.29 4.21 11.24 1.38-1.01 3.3c-.55 1.78-.77 2.04-3.72 1.67l-2.1-.26.37 4.81c7.38.84 8.37.02 10.07-5.54l1.04-3.41zm-.54-13.67l-17.21-2.11.85-2.79 17.21 2.12zm23.51 19.9a23.977 23.977 0 01-3.19-.22c-5.91-.83-7.65-4.02-6.48-7.86 1.36-4.44 6.09-8.33 10.69-9.7a13.374 13.374 0 014.93-.16l1.48.15.97-4.32c-6.69-.37-17.96-1.62-23.55-2.2l-1.28 4.52c3.5.25 8.74.48 11.75.72-4.4 2.47-8.22 6.61-9.53 10.88-2.17 7.11 2.38 11.79 10.43 12.79.48.05 1 .08 1.46.11zm3.27-9.75a36.961 36.961 0 00-1.15-6.3l-2.57.51a27.31 27.31 0 011.02 6.4zm4.29-.92a30.579 30.579 0 00-1.27-6.05l-2.46.53a32.761 32.761 0 011.14 6.2zm-194.2 7.43l.24-1.97 36.19 4.45-.25 1.97zm36.18 4.45l.25-1.97 33.92 4.18-.24 1.97zm33.93 4.18l.24-1.97 31.66 3.9-.24 1.97zm31.66 3.9l.24-1.97 30.52 3.76-.24 1.96zm30.52 3.75l.24-1.96 28.27 3.48-.24 1.97zm28.27 3.49l.24-1.97 27.13 3.34-.24 1.97z" transform="translate(-1152.72 -5555.56)"/><path id="&#x304F;&#x307E;WEB_" class="cls-1" d="M1264.47 5655.07c-3.47-5.45-10.75-13.06-13.31-16.4a1.762 1.762 0 01-.52-1.63c.25-.83 1.2-1.45 9.07-5.33 4.22-2.08 9.01-4.43 13.03-6.58l-3.14-5.2a133.568 133.568 0 01-11.9 7.07c-3.98 2.15-7.77 3.98-9.95 5.31a7.3 7.3 0 00-3.36 3.88 5.256 5.256 0 00.97 4.66c2.66 3.75 9.79 11.99 12.73 17.99zm35.85 1.43a30.194 30.194 0 00-7.18-8.01c.52-1.69 1.08-3.67 1.64-5.49l8.29 1.02 1.47-4.8-8.29-1.02 1.17-3.96 9.4 1.16 1.47-4.8-9.36-1.16 1.44-4.72-5.36-.66c-.29.97-.77 2.67-1.36 4.73l-12.01-1.43-1.47 4.8 12.12 1.49-1.17 3.96-11.18-1.38-1.47 4.81 11.28 1.34-1.21 4.08a14.966 14.966 0 00-3.2-.73c-4.66-.57-10.02 1.28-11.48 6.04-1.04 3.39.15 7.77 6.71 8.57 4.66.58 8.43-1.81 10.59-6.23a24.741 24.741 0 014.62 7.27zm-13.34-5.08c-1.01 2.3-2.69 4.32-5.25 4-1.73-.21-3.38-1.25-2.81-3.11.55-1.81 3.13-2.13 4.57-1.95a10.636 10.636 0 013.49 1.06zm41.74 12.77l17.01-31.09-5.27-.65-8.99 17.53c-1.41 2.79-2.89 6.47-4.04 9.06.55-2.86 1.36-7.05 1.64-9.39l1.95-18.36-4.46-.55-9.03 17.52c-1.67 3.27-3.08 6.95-4 9.06.43-2.32 1.16-5.51 1.58-9.35l2-18.39-5.22-.65-2.45 32.88 5.11.63 8.95-17.26c1.14-2.16 2.62-5.96 3.33-7.78-.38 1.9-1.3 5.69-1.54 7.92l-2.17 18.18zm25.09 2.42l1.36-4.45-9.87-1.22 2.98-9.73 8.36 1.03 1.37-4.49-8.36-1.03 2.33-7.6 9.87 1.22 1.37-4.45-14.84-1.83-9.4 30.73zm10.66.1c5.05.62 9.43-1.99 11.14-7.57 1.13-3.7.21-6.35-1.83-7.32 2.35-.96 4.05-3.77 4.56-5.4 1.71-5.61-1.38-7.66-5.61-8.18l-6.42-.79-8.7 28.42zm2.71-17.3l2.29-7.48 1.91.24c2.43.3 3.27 1.58 2.53 4.01-.74 2.41-2.46 3.76-4.92 3.45zm-3.99 13.05l2.84-9.28 2.22.28c2.35.29 3.79 1.85 2.85 4.92-.95 3.11-2.96 4.69-5.93 4.33zm28.6-.28l2.68-7.61 4.41-13.83-4.91-.61-4.12 13.91-2.02 7.65zm-4.36 7.64a4.079 4.079 0 004.19-2.82 2.669 2.669 0 00-2.23-3.6 4.078 4.078 0 00-4.18 2.81 2.67 2.67 0 002.22 3.61zm-153.57-6.12l.24-1.89 33.92 4.17-.24 1.9zm33.92 4.18l.24-1.9 32.78 4.04-.23 1.9zm32.79 4.04l.23-1.9 34.76 4.28-.24 1.9zm34.75 4.28l.24-1.9 18.67 2.3-.24 1.89zm18.67 2.29l.24-1.89 45.74 5.63-.24 1.9z" transform="translate(-1152.72 -5555.56)"/><path id="_" d="M1180.56 5572.95l-25-13.14-2.85 17.8z" transform="translate(-1152.72 -5555.56)" filter="url(#filter)" fill="#fff" fill-rule="evenodd"/></svg>